<?xml version="1.0" encoding="utf-8"?>
<!-- Generator: Adobe Illustrator 24.3.0, SVG Export Plug-In . SVG Version: 6.00 Build 0)  -->
<svg version="1.1" id="Layer_1" xmlns="http://www.w3.org/2000/svg" xmlns:xlink="http://www.w3.org/1999/xlink" x="0px" y="0px"
	 viewBox="0 0 350 612" style="enable-background:new 0 0 350 612;" xml:space="preserve">
<style type="text/css">
	.st0{fill:#010101;}
	.st1{fill:#C1531B;}
	.st2{fill:none;stroke:#010101;stroke-width:1.237;stroke-miterlimit:10;}
	.st3{fill:#7F2629;}
	.st4{fill:none;stroke:#010101;stroke-width:1.311;stroke-miterlimit:10;}
	.st5{fill:#C76C61;}
	.st6{fill:none;stroke:#010101;stroke-width:1.2746;stroke-miterlimit:10;}
	.st7{fill:none;stroke:#000000;stroke-width:1.237;stroke-miterlimit:10;}
</style>
<path class="st0" d="M211.91,89c0,0,2.36-4.57-0.54-7.96c-2.57,2.98,0.13,7.85,0.13,7.85L211.91,89z"/>
<path class="st0" d="M216.11,94.3c0,0-3.84-3.43-7.85-1.46c2.24,3.23,7.64,1.83,7.64,1.83L216.11,94.3z"/>
<path class="st0" d="M223.39,109.35c0,0-2.92-4.24-7.28-3.28c1.42,3.67,6.99,3.59,6.99,3.59L223.39,109.35z"/>
<path class="st0" d="M224.82,123.8c0,0-2.05-4.72-6.51-4.61c0.69,3.87,6.17,4.86,6.17,4.86L224.82,123.8z"/>
<path class="st0" d="M220.62,141.41c0,0-0.71-5.1-5.03-6.19c-0.38,3.92,4.63,6.34,4.63,6.34L220.62,141.41z"/>
<path class="st0" d="M212.13,158.13c0,0,0.58-5.11-3.34-7.25c-1.34,3.7,2.92,7.29,2.92,7.29L212.13,158.13z"/>
<path class="st0" d="M204.9,173.32c0,0,0.58-5.11-3.34-7.25c-1.34,3.7,2.92,7.29,2.92,7.29L204.9,173.32z"/>
<path class="st0" d="M199.56,189.09c0,0,0.58-5.11-3.34-7.25c-1.34,3.7,2.92,7.29,2.92,7.29L199.56,189.09z"/>
<path class="st0" d="M204.02,208.03c0,0-2.81-4.31-7.19-3.47c1.32,3.71,6.89,3.77,6.89,3.77L204.02,208.03z"/>
<path class="st0" d="M200.3,80.58c0,0,2.36-4.57-0.54-7.96c-2.57,2.98,0.13,7.85,0.13,7.85L200.3,80.58z"/>
<path class="st0" d="M192.08,68.19c0,0,5.29-2.45,5.13-6.78c-4.35,1.04-5.41,6.47-5.41,6.47L192.08,68.19z"/>
<path class="st0" d="M194.01,76.08c0,0-4.8-3.3-8.45-0.97c3.11,3.21,8.32,1.37,8.32,1.37L194.01,76.08z"/>
<path class="st0" d="M220.56,102.02c0,0,3.71-3.57,2.05-7.71c-3.39,1.99-2.4,7.48-2.4,7.48L220.56,102.02z"/>
<path class="st0" d="M225.35,118.89c0,0,4.66-2.18,4.43-6.64c-3.85,0.79-4.69,6.3-4.69,6.3L225.35,118.89z"/>
<path class="st0" d="M223.34,134.87c0,0,4.87-1.67,5.12-6.12c-3.92,0.37-5.34,5.76-5.34,5.76L223.34,134.87z"/>
<path class="st0" d="M215.33,153.3c0,0,5.1-0.68,6.22-5c-3.91-0.4-6.36,4.61-6.36,4.61L215.33,153.3z"/>
<path class="st0" d="M207.59,168.12c0,0,5.13-0.4,6.49-4.65c-3.89-0.62-6.61,4.24-6.61,4.24L207.59,168.12z"/>
<path class="st0" d="M201.42,183.13c0,0,5.13-0.4,6.49-4.65c-3.89-0.62-6.61,4.24-6.61,4.24L201.42,183.13z"/>
<path class="st0" d="M200.73,200.73c0,0,4.21-2.96,3.21-7.31c-3.66,1.45-3.52,7.02-3.52,7.02L200.73,200.73z"/>
<path class="st0" d="M209.56,213.21c0,0,2.67-4.4,0-7.98c-2.77,2.8-0.4,7.84-0.4,7.84L209.56,213.21z"/>
<path class="st0" d="M190.89,26.9c2.66,0.94,4.17,2.73,4.92,5.85c0.61,2.54,0.53,4.61-0.27,6.38c-0.86,2.07-2.63,3.54-4.8,4.06
	c-4.34,1.04-8.47-2.13-9.76-7.49c-0.86-3.6,0.09-6.19,2.54-6.78c1.63-0.39,2.98,0.47,3.36,2.06c0.39,1.63-0.42,3.04-1.91,3.4
	s-2.9-0.42-3.21-1.71c-0.06-0.24-0.07-0.45-0.08-0.91c-0.41,0.82-0.47,1.76-0.17,3.02c0.34,1.42,0.92,1.75,2.52,1.37l8.24-1.97
	c2.14-0.51,2.61-1.09,2.23-2.69c-0.4-1.66-1.72-2.99-3.8-3.9L190.89,26.9z"/>
<path class="st0" d="M150.39,224.54c1.5,2.39,1.57,4.73,0.22,7.64c-1.1,2.37-2.45,3.94-4.17,4.83c-1.97,1.09-4.26,1.13-6.28,0.19
	c-4.05-1.88-5.31-6.94-2.99-11.93c1.56-3.35,3.92-4.79,6.2-3.73c1.52,0.71,2.04,2.22,1.35,3.71c-0.71,1.52-2.22,2.12-3.61,1.47
	s-2.01-2.13-1.45-3.33c0.1-0.22,0.22-0.4,0.51-0.76c-0.83,0.38-1.47,1.09-2.01,2.26c-0.62,1.33-0.37,1.94,1.12,2.64l7.68,3.58
	c1.99,0.93,2.72,0.77,3.41-0.72c0.72-1.55,0.51-3.42-0.56-5.41L150.39,224.54z"/>
<path class="st0" d="M194.3,123.77c-1.48-2.4-1.53-4.74-0.15-7.64c1.12-2.36,2.48-3.92,4.21-4.79c1.97-1.07,4.27-1.1,6.28-0.14
	c4.03,1.92,5.26,6.98,2.89,11.96c-1.59,3.34-3.96,4.76-6.23,3.68c-1.51-0.72-2.03-2.24-1.32-3.72c0.72-1.51,2.24-2.1,3.62-1.44
	s1.99,2.14,1.42,3.34c-0.1,0.22-0.23,0.39-0.52,0.76c0.83-0.38,1.48-1.07,2.03-2.24c0.63-1.32,0.38-1.94-1.1-2.65l-7.65-3.64
	c-1.98-0.94-2.71-0.79-3.42,0.69c-0.73,1.54-0.54,3.41,0.51,5.42L194.3,123.77z"/>
<path class="st1" d="M201.25,91.78c0.07,0.93,0.51,1.48,1.78,2.3l9.9,6.36c1.4,0.9,1.97,1.79,1.86,2.87
	c-0.14,1.31-1.17,2.16-2.46,2.02c-1.31-0.14-2.23-1.2-2.09-2.47c0.12-1.15,0.94-1.94,2.13-2.06l-2.65-1.72l-9.67,4.27l-0.06,0.61
	l-0.47-0.05l0.8-7.75l0.47,0.05l-0.1,1.01l3.7-1.61l-1.02-0.67c-0.44-0.31-0.83-0.47-1.14-0.5c-0.78-0.08-1.17,0.31-1.4,1.37
	l-0.47-0.05l0.42-4.04L201.25,91.78z"/>
<path class="st1" d="M166.77,189.33c-0.23,0.91,0.02,1.56,0.97,2.74l7.4,9.15c1.05,1.3,1.31,2.32,0.86,3.31
	c-0.54,1.21-1.79,1.68-2.97,1.15c-1.21-0.54-1.73-1.84-1.21-3c0.47-1.05,1.5-1.55,2.67-1.28l-1.97-2.46l-10.52,1l-0.25,0.56
	l-0.43-0.19l3.19-7.1l0.43,0.19l-0.42,0.93l4.02-0.37l-0.76-0.96c-0.32-0.43-0.64-0.7-0.92-0.83c-0.71-0.32-1.21-0.08-1.76,0.86
	l-0.43-0.19l1.66-3.7L166.77,189.33z"/>
<path class="st2" d="M179.47,0c10.11,20.36,26.58,61.99,19.92,103.75c-9.53,59.8-65,124.8-64.13,179.4"/>
<path class="st2" d="M200.82,88.26c0,0-1.5,18.85-11.88,23.43"/>
<path class="st2" d="M198.85,96.99c0,0-5.7,6.54-13.14,4.85c2.98-6.88,13.5-6.89,13.5-6.89L198.85,96.99z"/>
<path class="st2" d="M194.61,39.78c0,0,1.15,18.88-8.49,24.86"/>
<path class="st2" d="M193.88,48.7c0,0-4.73,7.27-12.33,6.63c1.99-7.23,12.41-8.71,12.41-8.71L193.88,48.7z"/>
<path class="st2" d="M169.39,183.13c0,0-9.25,16.5-20.59,16.31"/>
<path class="st2" d="M163.95,190.23c0,0-7.92,3.55-13.96-1.09c5.58-5.01,15.15-0.61,15.15-0.61L163.95,190.23z"/>
<path class="st3" d="M203.41,33.43c-0.81-1.9-0.81-3.16,0.01-4.7c0.53-1,1.24-1.63,2.04-1.78c0.81-0.17,1.52,0.02,2.97,0.79
	l5.76,3.05l0.87-1.64l0.61,0.32l-0.4,0.76c-1.05,1.98-1.38,2.78-1.75,3.96l-7.2-3.81c-1-0.53-1.21-0.61-1.6-0.53
	c-0.37,0.05-0.69,0.29-0.88,0.66c-0.39,0.73-0.33,1.86,0.15,2.68c0.37,0.6,0.74,0.92,1.93,1.56l4.83,2.56l0.87-1.64l0.61,0.32
	l-0.4,0.76c-1.05,1.98-1.38,2.78-1.75,3.96l-9.28-4.92l-0.86,1.62l-0.61-0.32l2.41-4.56L203.41,33.43z"/>
<path class="st3" d="M186.44,111.91l-6.2,0.89c-0.44,0.05-0.59,0.1-0.71,0.18c-0.28,0.16-0.26,0.43,0.1,1.03l0.55,0.94l-0.63,0.37
	l-2.53-4.31l0.63-0.37l0.34,0.58c0.59,0.95,0.7,1.02,2.11,0.8l10.46-1.52l0.4,0.68l-6.98,10.21l0.67,1.14l-0.63,0.37l-3.46-5.88
	l0.63-0.37l0.92,1.57L186.44,111.91z"/>
<g>
	<path class="st3" d="M142.5,194.67c3.03-0.69,6.01,1.4,6.76,4.71c0.76,3.34-1.04,6.49-4.14,7.19c-3.05,0.69-6.06-1.36-6.81-4.68
		C137.54,198.5,139.34,195.38,142.5,194.67z M140.64,203.55c0.62,0.14,1.74,0.02,3.73-0.43c2.15-0.49,3.18-0.86,3.65-1.36
		c0.55-0.54,0.73-1.34,0.53-2.21c-0.22-0.96-0.82-1.63-1.62-1.84c-0.62-0.14-1.76-0.02-3.67,0.42c-2.23,0.51-3.23,0.87-3.71,1.37
		c-0.55,0.54-0.73,1.34-0.53,2.21C139.24,202.66,139.84,203.34,140.64,203.55z"/>
</g>
<path class="st2" d="M138.33,257.75c0,0-5.25,18.17-16.34,20.57"/>
<path class="st2" d="M134.65,265.91c0,0-6.9,5.26-13.84,2.11c4.3-6.15,14.61-4.04,14.61-4.04L134.65,265.91z"/>
<path class="st4" d="M184.9,11.76c0,0,6.44,18.16,18.35,18.8"/>
<path class="st2" d="M188.91,19.63c0,0,7.59,4.35,14.82-0.13c-4.86-5.72-15.73-1.77-15.73-1.77L188.91,19.63z"/>
<path class="st4" d="M194.44,124.58c0,0-6.82,18.02,1.85,26.21"/>
<path class="st2" d="M192.42,133.18c0,0,2.98,8.22,11.4,9.48c-0.02-7.5-10.87-11.51-10.87-11.51L192.42,133.18z"/>
<path class="st5" d="M160.49,235.43l0.79,6.21c0.05,0.44,0.1,0.59,0.17,0.72c0.16,0.28,0.42,0.27,1.04-0.08l0.94-0.54l0.36,0.64
	l-4.34,2.47l-0.36-0.64l0.59-0.33c0.96-0.58,1.03-0.69,0.84-2.1l-1.37-10.48l0.69-0.39l10.11,7.13l1.15-0.65l0.36,0.64l-5.93,3.37
	l-0.36-0.64l1.59-0.9L160.49,235.43z"/>
<path class="st5" d="M119.24,276.89c2.07,0.15,3.18,0.72,4.18,2.15c0.65,0.93,0.89,1.85,0.65,2.62c-0.22,0.8-0.72,1.34-2.06,2.28
	l-5.34,3.73l1.06,1.52l-0.57,0.4l-0.49-0.71c-1.28-1.84-1.84-2.5-2.72-3.37l6.68-4.67c0.93-0.65,1.1-0.8,1.2-1.18
	c0.12-0.36,0.05-0.75-0.19-1.09c-0.48-0.68-1.51-1.14-2.45-1.09c-0.71,0.05-1.16,0.23-2.27,1.01l-4.48,3.13l1.06,1.52l-0.57,0.4
	l-0.49-0.71c-1.28-1.84-1.84-2.5-2.72-3.37l8.61-6.01l-1.05-1.5l0.57-0.4l2.95,4.23L119.24,276.89z"/>
<g>
	<path class="st5" d="M178.24,64.03c2.17-2.21,5.81-2.08,8.24,0.3c2.45,2.4,2.64,6.02,0.41,8.29c-2.19,2.23-5.83,2.14-8.26-0.25
		C176.14,69.94,175.97,66.34,178.24,64.03z M181.48,72.51c0.6-0.22,1.47-0.92,2.9-2.38c1.54-1.57,2.21-2.45,2.34-3.12
		c0.17-0.75-0.11-1.52-0.75-2.15c-0.7-0.69-1.57-0.93-2.35-0.67c-0.6,0.22-1.49,0.94-2.86,2.34c-1.6,1.63-2.25,2.48-2.37,3.16
		c-0.17,0.75,0.11,1.52,0.75,2.15C179.82,72.52,180.69,72.76,181.48,72.51z"/>
</g>
<path class="st5" d="M194.57,153.07c0.61-1.98,1.42-2.93,3.04-3.58c1.06-0.42,2-0.44,2.7-0.04c0.73,0.4,1.15,1,1.76,2.52l2.42,6.04
	l1.72-0.69l0.26,0.64l-0.8,0.32c-2.08,0.84-2.85,1.23-3.9,1.89l-3.03-7.56c-0.42-1.05-0.53-1.25-0.88-1.44
	c-0.32-0.2-0.71-0.22-1.1-0.07c-0.77,0.31-1.46,1.21-1.62,2.14c-0.11,0.7-0.04,1.18,0.47,2.44l2.03,5.07l1.72-0.69l0.26,0.64
	l-0.8,0.32c-2.08,0.84-2.85,1.23-3.9,1.89l-3.91-9.75l-1.7,0.68l-0.26-0.64l4.78-1.92L194.57,153.07z"/>
<path class="st4" d="M158.29,205.9c0,0-6.82,18.02,1.85,26.21"/>
<path class="st2" d="M156.27,214.49c0,0,2.98,8.22,11.4,9.48c-0.02-7.5-10.87-11.51-10.87-11.51L156.27,214.49z"/>
<g>
	<path class="st2" d="M177.11,1.55c0,0-9.82,8.23-7.33,20.46c10.33-3.79,9.83-22,9.83-22L177.11,1.55z"/>
	<path class="st0" d="M175.9,12.16c-1.54-2.05-2.11-4.05-1.72-5.99c0.4-2.01,1.67-3.59,3.9-4.84l0.17,0.24
		c-0.7,0.68-1.02,1.13-1.49,2.07c-0.52,1.01-0.85,1.97-1.06,2.98c-0.42,2.07-0.28,3.64,0.45,5.37L175.9,12.16z"/>
</g>
<g>
	<path class="st2" d="M199.93,65.52c0,0,1.71,12.7,13.38,17.13c2.31-10.75-13.35-20.07-13.35-20.07L199.93,65.52z"/>
	<path class="st0" d="M208.27,72.21c-2.56,0.2-4.55-0.38-5.98-1.75c-1.48-1.42-2.14-3.33-2.01-5.88l0.3-0.02
		c0.2,0.95,0.41,1.47,0.95,2.37c0.58,0.98,1.21,1.77,1.96,2.49c1.53,1.46,2.93,2.18,4.78,2.48L208.27,72.21z"/>
</g>
<g>
	<path class="st2" d="M142.97,242.46c0,0-2.48,12.58,7.13,20.53c5.66-9.43-6.16-23.3-6.16-23.3L142.97,242.46z"/>
	<path class="st0" d="M148.69,251.48c-2.48-0.63-4.18-1.83-5.1-3.58c-0.95-1.82-0.95-3.84-0.01-6.22l0.29,0.08
		c-0.12,0.97-0.08,1.52,0.13,2.55c0.23,1.11,0.57,2.07,1.05,2.99c0.98,1.88,2.07,3,3.72,3.89L148.69,251.48z"/>
</g>
<g>
	<path class="st6" d="M181.3,152.23c0,0-13.02,2.09-17.26,14.24c11.12,2.11,20.29-14.29,20.29-14.29L181.3,152.23z"/>
	<path class="st0" d="M174.63,160.99c-0.27-2.63,0.28-4.71,1.64-6.22c1.42-1.57,3.37-2.3,6-2.23l0.02,0.31
		c-0.97,0.23-1.5,0.46-2.41,1.04c-0.99,0.62-1.79,1.3-2.51,2.09c-1.46,1.62-2.16,3.08-2.43,5L174.63,160.99z"/>
</g>
<g>
	<path class="st0" d="M201.27,76.21c-3.93,1.6-6.64,4.18-7.27,6.96c-0.1,0.43-0.02,0.74,0.27,0.8c0.19,0.04,0.25,0.01,0.97-0.33
		c0.73-0.38,1.75-0.5,2.6-0.31c2.37,0.53,3.81,2.94,3.26,5.4c-0.57,2.55-3.07,3.98-5.91,3.35c-3.31-0.74-4.69-3.68-3.73-7.99
		c0.96-4.3,4.12-7.52,9.19-9.32L201.27,76.21z"/>
</g>
<g>
	<path class="st0" d="M190.97,134.71c-4.24,0.27-7.63,1.85-9.11,4.3c-0.23,0.37-0.25,0.7,0,0.85c0.17,0.1,0.23,0.08,1.02,0
		c0.81-0.13,1.82,0.08,2.56,0.53c2.08,1.25,2.68,4,1.38,6.16c-1.35,2.24-4.18,2.8-6.67,1.29c-2.91-1.76-3.28-4.98-1-8.76
		s6.29-5.82,11.67-5.92L190.97,134.71z"/>
</g>
<g>
	<path class="st0" d="M142.06,245.77c-4.24,0.27-7.63,1.85-9.11,4.3c-0.23,0.37-0.25,0.7,0,0.85c0.17,0.1,0.23,0.08,1.02,0
		c0.81-0.13,1.82,0.08,2.56,0.53c2.08,1.25,2.68,4,1.38,6.16c-1.35,2.24-4.18,2.8-6.67,1.29c-2.91-1.76-3.28-4.98-1-8.76
		s6.29-5.82,11.67-5.92L142.06,245.77z"/>
</g>
<g>
	<path class="st0" d="M198.64,59.29c3.58-2.28,5.79-5.3,5.9-8.16c0.02-0.44-0.11-0.73-0.41-0.74c-0.19-0.01-0.24,0.04-0.89,0.5
		c-0.65,0.51-1.63,0.81-2.5,0.77c-2.42-0.1-4.28-2.21-4.18-4.73c0.1-2.61,2.31-4.47,5.22-4.35c3.39,0.14,5.28,2.78,5.1,7.19
		s-2.7,8.14-7.37,10.81L198.64,59.29z"/>
</g>
<g>
	<path class="st0" d="M169.42,182.35c4.23,0.38,7.82-0.66,9.65-2.85c0.28-0.33,0.36-0.65,0.13-0.84c-0.15-0.12-0.22-0.12-1.01-0.15
		c-0.82,0.01-1.79-0.36-2.45-0.92c-1.86-1.56-2.04-4.36-0.42-6.29c1.68-2.01,4.56-2.13,6.79-0.26c2.6,2.18,2.48,5.43-0.36,8.81
		c-2.83,3.38-7.11,4.79-12.44,4.06L169.42,182.35z"/>
</g>
<g>
	<path class="st3" d="M206.59,69.81c-0.71,0.13-1.18,0.03-1.66-0.3c-0.91-0.62-1.1-1.49-0.55-2.53c-1.18,0.58-2.41,0.52-3.41-0.16
		c-1.17-0.79-1.47-2.05-0.77-3.09c0.63-0.93,1.72-1.26,3.12-0.97c0.86,0.2,1.71,0.58,2.97,1.41l0.89-1.3
		c0.73-1.08,0.82-1.29,0.79-1.68c-0.03-0.35-0.33-0.78-0.74-1.06c-0.67-0.45-1.69-0.54-1.95-0.16c-0.05,0.08-0.06,0.13-0.05,0.27
		c0.05,0.37,0,0.55-0.14,0.76c-0.32,0.47-0.89,0.59-1.31,0.3c-0.46-0.31-0.56-0.88-0.23-1.37c0.68-1,2.65-0.96,4.19,0.09
		c0.91,0.62,1.53,1.48,1.64,2.28c0.11,0.71,0.07,0.82-1.06,2.48l-1.41,2.08c-1.22,1.79-1.22,1.79-1.26,2.01
		c-0.06,0.21-0.03,0.32,0.16,0.44c0.19,0.13,0.24,0.13,0.76,0.07L206.59,69.81z M206.07,64.49c-1.01-0.63-1.55-0.83-2.18-0.85
		c-0.79-0.04-1.38,0.25-1.81,0.87c-0.54,0.79-0.45,1.54,0.25,2.02c0.55,0.38,1.22,0.39,1.89,0.04c0.45-0.22,0.93-0.72,1.59-1.71
		L206.07,64.49z"/>
</g>
<g>
	<path class="st3" d="M149.44,248.81c-0.71,0.13-1.18,0.03-1.66-0.3c-0.91-0.62-1.1-1.49-0.55-2.53c-1.18,0.58-2.41,0.52-3.41-0.16
		c-1.17-0.79-1.47-2.05-0.77-3.09c0.63-0.93,1.72-1.26,3.12-0.97c0.86,0.2,1.71,0.58,2.97,1.41l0.89-1.3
		c0.73-1.08,0.82-1.29,0.79-1.68c-0.03-0.35-0.33-0.78-0.74-1.06c-0.67-0.45-1.69-0.54-1.95-0.16c-0.05,0.08-0.06,0.13-0.05,0.27
		c0.05,0.37,0,0.55-0.14,0.76c-0.32,0.47-0.88,0.59-1.31,0.3c-0.46-0.31-0.56-0.88-0.23-1.37c0.68-1,2.65-0.96,4.19,0.09
		c0.91,0.62,1.53,1.48,1.64,2.28c0.11,0.71,0.07,0.82-1.06,2.48l-1.41,2.08c-1.22,1.79-1.22,1.79-1.26,2.01
		c-0.06,0.21-0.03,0.32,0.16,0.44c0.19,0.13,0.24,0.13,0.76,0.07L149.44,248.81z M148.92,243.49c-1.01-0.63-1.55-0.83-2.18-0.85
		c-0.79-0.04-1.38,0.25-1.81,0.87c-0.54,0.79-0.45,1.54,0.25,2.02c0.55,0.38,1.22,0.39,1.89,0.04c0.45-0.22,0.93-0.72,1.59-1.71
		L148.92,243.49z"/>
</g>
<g>
	<path d="M183.35,153.74l-0.01-0.59l4.65-0.1l0.3,13.46c0.06,2.55-0.07,3.47-0.59,4.38c-0.69,1.17-1.92,1.91-3.19,1.94
		c-1.54,0.03-2.72-0.83-2.74-2.01c-0.02-0.83,0.44-1.37,1.19-1.39c0.71-0.02,1.2,0.48,1.21,1.22c0,0.18,0,0.21-0.07,0.71
		c-0.03,0.06-0.03,0.15-0.02,0.24c0.01,0.45,0.19,0.62,0.58,0.61c0.47-0.01,0.82-0.37,0.99-0.97c0.08-0.36,0.08-0.62,0.04-2.19
		l-0.34-15.33L183.35,153.74z M188.1,146.99c0.02,0.95-0.7,1.71-1.62,1.73c-0.92,0.02-1.65-0.71-1.67-1.68
		c-0.02-0.95,0.65-1.68,1.59-1.7C187.32,145.32,188.08,146.04,188.1,146.99z"/>
</g>
<g>
	<path d="M133.22,265.13l0.03-0.6l4.73,0.21l-0.6,13.67c-0.11,2.59-0.3,3.52-0.89,4.4c-0.77,1.14-2.07,1.81-3.36,1.75
		c-1.57-0.07-2.7-1.02-2.65-2.23c0.04-0.84,0.54-1.36,1.3-1.33c0.72,0.03,1.18,0.56,1.15,1.32c-0.01,0.18-0.01,0.21-0.12,0.72
		c-0.03,0.06-0.04,0.15-0.04,0.24c-0.02,0.45,0.15,0.64,0.54,0.66c0.48,0.02,0.86-0.32,1.07-0.92c0.11-0.36,0.12-0.63,0.19-2.22
		l0.68-15.57L133.22,265.13z M138.48,258.61c-0.04,0.96-0.83,1.68-1.76,1.64c-0.93-0.04-1.62-0.83-1.58-1.82
		c0.04-0.96,0.77-1.66,1.73-1.61C137.8,256.86,138.52,257.64,138.48,258.61z"/>
</g>
<g>
	<path d="M134.89,226.75c-6.88-3.37-12.49-8.26-16.79-14.63c-4.47-6.62-6.85-13.45-7.29-20.99l0.8,0.42c0.85,3.2,1.58,5.1,3.31,8.66
		c1.88,3.87,3.84,7.27,6.09,10.6c4.61,6.82,8.63,11.17,13.76,15.01L134.89,226.75z"/>
	<path d="M110.81,191.13c7.12,2.85,13.07,7.3,17.84,13.33c4.96,6.26,7.84,12.89,8.85,20.39l-0.83-0.35
		c-1.08-3.13-1.96-4.97-3.95-8.39c-2.17-3.72-4.38-6.96-6.87-10.11c-5.11-6.45-9.44-10.49-14.85-13.93L110.81,191.13z"/>
	<path d="M117.32,203.05c4.64,1.86,8.52,4.76,11.64,8.69c3.23,4.08,5.11,8.41,5.77,13.29l-0.54-0.23c-0.71-2.04-1.28-3.24-2.58-5.47
		c-1.41-2.43-2.86-4.54-4.48-6.59c-3.33-4.21-6.16-6.84-9.68-9.08L117.32,203.05z"/>
</g>
<g>
	<path d="M135.42,232.79c-6.18,4.53-13.11,7.23-20.75,8.09c-7.94,0.89-15.09-0.17-21.98-3.28l0.74-0.52
		c3.23,0.74,5.25,0.97,9.21,1.09c4.31,0.13,8.23-0.03,12.22-0.48c8.18-0.92,13.9-2.46,19.68-5.23L135.42,232.79z"/>
	<path d="M92.69,237.61c5.82-4.98,12.53-8.2,20.08-9.63c7.85-1.49,15.06-0.97,22.17,1.62l-0.7,0.57c-3.27-0.49-5.31-0.57-9.26-0.39
		c-4.3,0.19-8.2,0.65-12.15,1.4c-8.09,1.53-13.67,3.5-19.23,6.7L92.69,237.61z"/>
	<path d="M106.27,237.37c3.8-3.25,8.17-5.34,13.09-6.28c5.12-0.97,9.82-0.63,14.45,1.05l-0.46,0.37c-2.14-0.32-3.46-0.37-6.04-0.25
		c-2.81,0.13-5.35,0.42-7.92,0.91c-5.27,1-8.92,2.28-12.54,4.37L106.27,237.37z"/>
</g>
<path class="st7" d="M197.78,53.01c0,0-15.51,18.31,3.14,28.22c19.76,10.5,27.06,31.97,23.18,49.92
	c-3.91,18.05-25.56,46.58-24.87,63.39S217.86,219,217.86,219"/>
</svg>
