<?xml version="1.0" encoding="utf-8"?>
<!-- Generator: Adobe Illustrator 24.3.0, SVG Export Plug-In . SVG Version: 6.00 Build 0)  -->
<svg version="1.1" id="Layer_1" xmlns="http://www.w3.org/2000/svg" xmlns:xlink="http://www.w3.org/1999/xlink" x="0px" y="0px"
	 viewBox="0 0 350 612" style="enable-background:new 0 0 350 612;" xml:space="preserve">
<style type="text/css">
	.st0{fill:#C1531B;}
	.st1{fill:#7F2629;}
	.st2{fill:#C76C61;}
	.st3{fill:#231F20;}
	.st4{fill:#903A1F;}
	.st5{fill:#A34424;}
	.st6{fill:#A54624;}
</style>
<g>
	<g>
		<path class="st0" d="M101.76,271.92h-15v-5.6h6.94c17.92,0,25.08-0.67,34.94-2.46v15.9c8.51-10.3,19.71-15.68,32.25-15.68
			c13.44,0,23.74,6.49,27.77,17.47c8.06-11.87,18.37-17.47,32.03-17.47c8.96,0,17.02,2.69,21.95,7.39
			c4.93,4.93,6.05,9.18,6.05,22.62v54.65h14.78v5.6h-53.75v-5.6h12.1v-54.65c0-13.89-0.22-14.33-1.79-16.8
			c-1.79-2.69-4.93-4.25-8.96-4.25c-6.27,0-12.77,3.81-17.02,9.85c-4.03,5.6-5.38,11.42-5.38,22.85v43h11.87v5.6h-50.62v-5.6h11.87
			v-54.65c0-12.1-0.45-13.89-2.69-17.02c-1.79-2.69-4.93-4.03-8.51-4.03c-6.94,0-14.56,4.93-18.37,12.1
			c-2.91,5.37-3.58,8.96-3.58,20.6v43h11.87v5.6H86.76v-5.6h15V271.92z"/>
	</g>
</g>
<g>
	<path d="M277.8,217.65c2.72-0.37,4.83,0.5,6.86,2.87c1.66,1.93,2.51,3.75,2.61,5.64c0.18,2.18-0.7,4.23-2.35,5.65
		c-3.29,2.84-8.28,1.93-11.78-2.13c-2.35-2.73-2.68-5.4-0.83-6.99c1.23-1.06,2.79-0.92,3.83,0.29c1.06,1.23,0.99,2.82-0.14,3.79
		s-2.69,0.93-3.54-0.05c-0.16-0.18-0.26-0.36-0.47-0.76c0.01,0.89,0.38,1.74,1.2,2.69c0.93,1.08,1.58,1.11,2.79,0.06l6.25-5.38
		c1.62-1.4,1.77-2.11,0.73-3.32c-1.09-1.26-2.83-1.82-5.03-1.67L277.8,217.65z"/>
</g>
<g>
	<path d="M215.45,177.59c-1.62,2.23-3.7,3.13-6.82,2.97c-2.54-0.14-4.45-0.78-5.88-2.02c-1.69-1.38-2.57-3.43-2.45-5.6
		c0.23-4.34,4.34-7.32,9.69-7.03c3.59,0.19,5.75,1.8,5.62,4.25c-0.09,1.63-1.26,2.65-2.86,2.57c-1.63-0.09-2.72-1.23-2.64-2.73
		c0.08-1.49,1.19-2.59,2.48-2.52c0.24,0.01,0.44,0.06,0.87,0.18c-0.65-0.61-1.51-0.93-2.77-1c-1.42-0.08-1.89,0.37-1.98,1.97
		l-0.44,8.24c-0.11,2.13,0.3,2.74,1.89,2.82c1.66,0.09,3.27-0.78,4.69-2.47L215.45,177.59z"/>
</g>
<g>
	<path d="M146.41,140.78c2.06,1.83,2.76,3.99,2.29,7.08c-0.38,2.52-1.21,4.35-2.58,5.65c-1.54,1.55-3.67,2.22-5.82,1.89
		c-4.3-0.66-6.86-5.03-6.05-10.33c0.54-3.56,2.36-5.55,4.77-5.18c1.61,0.25,2.52,1.52,2.27,3.09c-0.25,1.61-1.49,2.59-2.97,2.36
		c-1.48-0.23-2.46-1.44-2.26-2.72c0.04-0.23,0.1-0.43,0.27-0.85c-0.67,0.58-1.07,1.42-1.26,2.66c-0.22,1.41,0.19,1.92,1.76,2.16
		l8.16,1.25c2.11,0.32,2.75-0.03,2.99-1.6c0.25-1.64-0.45-3.33-2-4.91L146.41,140.78z"/>
</g>
<g>
	<path d="M145.61,83.24c-2.1-1.77-2.86-3.92-2.47-7.02c0.32-2.53,1.1-4.38,2.43-5.72c1.5-1.59,3.61-2.32,5.77-2.05
		c4.31,0.54,6.99,4.85,6.32,10.17c-0.45,3.57-2.21,5.61-4.64,5.3c-1.62-0.2-2.56-1.45-2.36-3.03c0.2-1.62,1.43-2.63,2.91-2.44
		c1.48,0.19,2.5,1.37,2.34,2.65c-0.03,0.24-0.09,0.43-0.24,0.86c0.66-0.6,1.04-1.44,1.19-2.69c0.18-1.41-0.24-1.91-1.82-2.11
		l-8.19-1.03c-2.12-0.27-2.75,0.1-2.95,1.68c-0.21,1.65,0.54,3.32,2.13,4.85L145.61,83.24z"/>
</g>
<g>
	<path d="M61.98,235.36c1.37,2.38,1.36,4.66-0.07,7.44c-1.16,2.27-2.52,3.74-4.23,4.55c-1.95,0.98-4.18,0.95-6.12-0.04
		c-3.87-1.98-4.92-6.94-2.47-11.71c1.64-3.2,3.99-4.52,6.17-3.4c1.45,0.74,1.91,2.23,1.18,3.65c-0.74,1.45-2.24,1.98-3.56,1.3
		c-1.33-0.68-1.88-2.14-1.29-3.29c0.11-0.21,0.23-0.38,0.52-0.72c-0.82,0.34-1.47,1-2.04,2.12c-0.65,1.27-0.43,1.88,0.99,2.61
		l7.35,3.76c1.9,0.97,2.62,0.84,3.35-0.58c0.76-1.48,0.62-3.3-0.35-5.29L61.98,235.36z"/>
</g>
<g>
	<path d="M44.93,347.4c2.64,0.78,4.19,2.45,5.07,5.44c0.72,2.44,0.75,4.45,0.06,6.21c-0.74,2.06-2.38,3.57-4.46,4.18
		c-4.17,1.23-8.34-1.65-9.86-6.79c-1.02-3.45-0.22-6.02,2.13-6.71c1.56-0.46,2.92,0.31,3.37,1.84c0.46,1.56-0.26,2.98-1.69,3.4
		c-1.43,0.42-2.84-0.26-3.2-1.5c-0.07-0.23-0.09-0.43-0.12-0.89c-0.36,0.81-0.37,1.74-0.02,2.94c0.4,1.37,0.98,1.66,2.51,1.21
		l7.91-2.33c2.05-0.6,2.48-1.19,2.03-2.72c-0.47-1.6-1.82-2.82-3.89-3.6L44.93,347.4z"/>
</g>
<g>
	<path d="M100.73,422.99c-2.53,1.07-4.79,0.78-7.38-0.97c-2.11-1.43-3.41-2.96-4-4.76c-0.74-2.06-0.43-4.27,0.79-6.07
		c2.44-3.6,7.49-4.03,11.93-1.03c2.98,2.02,4,4.51,2.63,6.53c-0.91,1.35-2.45,1.62-3.77,0.73c-1.35-0.91-1.7-2.46-0.86-3.7
		c0.84-1.24,2.36-1.6,3.42-0.88c0.2,0.13,0.35,0.27,0.65,0.61c-0.24-0.86-0.82-1.58-1.86-2.28c-1.18-0.8-1.81-0.65-2.71,0.67
		l-4.62,6.83c-1.2,1.77-1.16,2.5,0.16,3.39c1.38,0.93,3.2,1.02,5.29,0.3L100.73,422.99z"/>
</g>
<g>
	<path d="M180.14,446.09c0.98-2.57,2.75-4,5.81-4.65c2.49-0.54,4.5-0.41,6.2,0.41c2,0.89,3.38,2.64,3.84,4.77
		c0.91,4.25-2.27,8.2-7.51,9.32c-3.52,0.76-6.02-0.23-6.54-2.62c-0.34-1.59,0.52-2.89,2.08-3.23c1.59-0.34,2.95,0.48,3.26,1.94
		c0.31,1.46-0.47,2.81-1.73,3.08c-0.23,0.05-0.44,0.06-0.89,0.05c0.78,0.42,1.71,0.5,2.93,0.24c1.39-0.3,1.73-0.86,1.39-2.42
		l-1.73-8.07c-0.45-2.09-1-2.56-2.56-2.23c-1.63,0.35-2.95,1.61-3.88,3.61L180.14,446.09z"/>
</g>
<g>
	<path d="M159.08,513.01c-1.63-2.22-1.86-4.48-0.75-7.4c0.9-2.38,2.1-4,3.71-4.98c1.83-1.19,4.05-1.4,6.09-0.63
		c4.06,1.54,5.65,6.36,3.74,11.37c-1.28,3.36-3.47,4.93-5.76,4.06c-1.52-0.58-2.14-2.01-1.57-3.5c0.58-1.52,2-2.22,3.4-1.69
		c1.4,0.53,2.1,1.92,1.64,3.13c-0.08,0.22-0.19,0.4-0.44,0.78c0.78-0.43,1.35-1.16,1.79-2.33c0.51-1.33,0.22-1.91-1.27-2.48
		l-7.71-2.93c-2-0.76-2.7-0.55-3.26,0.94c-0.59,1.55-0.26,3.35,0.92,5.22L159.08,513.01z"/>
</g>
<g>
	<path d="M152.91,561.24c2.17,1.69,3.01,3.81,2.73,6.92c-0.22,2.54-0.93,4.42-2.22,5.8c-1.44,1.65-3.52,2.45-5.69,2.26
		c-4.33-0.38-7.16-4.58-6.69-9.93c0.32-3.58,2-5.69,4.43-5.47c1.62,0.14,2.61,1.35,2.47,2.94c-0.14,1.62-1.33,2.68-2.81,2.55
		c-1.49-0.13-2.55-1.28-2.43-2.57c0.02-0.24,0.07-0.44,0.21-0.87c-0.63,0.63-0.98,1.48-1.09,2.73c-0.13,1.42,0.31,1.9,1.9,2.04
		l8.22,0.72c2.13,0.19,2.74-0.2,2.88-1.79c0.15-1.66-0.66-3.3-2.31-4.77L152.91,561.24z"/>
</g>
<g>
	<path d="M305.95,352.22c-1.24-2.45-1.09-4.73,0.48-7.42c1.28-2.2,2.73-3.6,4.48-4.3c2-0.87,4.23-0.71,6.11,0.38
		c3.75,2.19,4.52,7.2,1.82,11.83c-1.81,3.11-4.23,4.29-6.35,3.06c-1.41-0.82-1.78-2.34-0.98-3.71c0.82-1.41,2.34-1.86,3.63-1.1
		c1.29,0.75,1.76,2.24,1.11,3.36c-0.12,0.21-0.25,0.36-0.56,0.69c0.84-0.3,1.52-0.92,2.15-2.01c0.72-1.23,0.53-1.85-0.85-2.66
		l-7.12-4.16c-1.85-1.08-2.57-0.99-3.37,0.39c-0.84,1.44-0.81,3.26,0.05,5.3L305.95,352.22z"/>
</g>
<g>
	<path class="st0" d="M259.39,199.96c0.8,0.44,1.47,0.37,2.82-0.22l10.47-4.65c1.48-0.66,2.51-0.64,3.33,0.02
		c1,0.81,1.13,2.11,0.33,3.09c-0.81,1-2.17,1.17-3.13,0.38c-0.87-0.71-1.08-1.8-0.53-2.84l-2.81,1.23l-1.71,10.15l0.46,0.38
		l-0.29,0.36l-5.87-4.8l0.29-0.36l0.76,0.63l0.67-3.87l-1.1,0.47c-0.49,0.2-0.82,0.43-1.01,0.66c-0.48,0.59-0.38,1.12,0.37,1.87
		l-0.29,0.36l-3.06-2.5L259.39,199.96z"/>
</g>
<g>
	<path class="st0" d="M143.06,106.5c-0.11-0.9-0.56-1.41-1.83-2.15l-9.91-5.74c-1.4-0.82-2-1.66-1.94-2.71
		c0.07-1.28,1.04-2.15,2.3-2.08c1.28,0.07,2.22,1.07,2.15,2.31c-0.06,1.12-0.82,1.93-1.98,2.1l2.65,1.55l9.21-4.59l0.03-0.6
		l0.46,0.03l-0.43,7.57l-0.46-0.03l0.06-0.99l-3.53,1.73l1.02,0.61c0.44,0.28,0.83,0.42,1.13,0.43c0.76,0.04,1.12-0.35,1.3-1.4
		l0.46,0.03l-0.22,3.95L143.06,106.5z"/>
</g>
<g>
	<path class="st0" d="M149.09,5.44c0.24,0.88,0.77,1.31,2.13,1.86l10.65,4.21c1.51,0.6,2.22,1.34,2.32,2.39
		c0.12,1.28-0.71,2.28-1.97,2.4c-1.28,0.12-2.35-0.73-2.47-1.96c-0.1-1.12,0.53-2.03,1.65-2.37l-2.85-1.14l-8.43,5.9l0.05,0.59
		l-0.46,0.04l-0.7-7.55l0.46-0.04l0.09,0.98l3.23-2.24l-1.1-0.45c-0.48-0.21-0.88-0.29-1.18-0.26c-0.76,0.07-1.06,0.51-1.08,1.58
		L149,9.42l-0.36-3.93L149.09,5.44z"/>
</g>
<g>
	<path class="st0" d="M123.34,436.01c-0.88-0.24-1.52-0.02-2.69,0.87l-9.1,6.96c-1.29,0.98-2.29,1.21-3.25,0.75
		c-1.16-0.56-1.59-1.79-1.04-2.92c0.56-1.16,1.84-1.64,2.95-1.1c1.01,0.49,1.47,1.5,1.18,2.63l2.45-1.85l-0.71-10.27l-0.54-0.26
		l0.2-0.41l6.83,3.29l-0.2,0.41l-0.89-0.43l0.25,3.92l0.96-0.71c0.43-0.3,0.7-0.61,0.83-0.87c0.33-0.68,0.11-1.17-0.8-1.74l0.2-0.41
		l3.56,1.72L123.34,436.01z"/>
</g>
<g>
	<path class="st0" d="M155.13,530.76c-0.02-0.91-0.41-1.46-1.6-2.33l-9.26-6.75c-1.31-0.96-1.82-1.86-1.65-2.9
		c0.21-1.27,1.26-2.03,2.51-1.83c1.27,0.21,2.09,1.3,1.89,2.52c-0.18,1.11-1.02,1.84-2.19,1.88l2.47,1.82l9.64-3.6l0.1-0.59
		l0.45,0.07l-1.22,7.48l-0.45-0.07l0.16-0.98l-3.69,1.35l0.95,0.71c0.41,0.32,0.78,0.5,1.07,0.55c0.75,0.12,1.15-0.23,1.44-1.26
		l0.45,0.07l-0.64,3.9L155.13,530.76z"/>
</g>
<g>
	<path class="st0" d="M154.05,578.57c0.25,0.87,0.78,1.3,2.16,1.83l10.71,4.08c1.52,0.58,2.24,1.31,2.35,2.36
		c0.13,1.28-0.68,2.29-1.94,2.42c-1.28,0.13-2.36-0.7-2.49-1.93c-0.12-1.12,0.5-2.04,1.62-2.39l-2.86-1.11l-8.36,6l0.06,0.59
		l-0.46,0.05l-0.79-7.54l0.46-0.05l0.1,0.98l3.2-2.28l-1.11-0.44c-0.48-0.2-0.88-0.28-1.18-0.25c-0.75,0.08-1.05,0.53-1.06,1.59
		l-0.46,0.05l-0.41-3.93L154.05,578.57z"/>
</g>
<g>
	<path class="st0" d="M309.19,277.03c-0.38-0.83-0.97-1.17-2.41-1.48l-11.2-2.42c-1.59-0.35-2.41-0.96-2.68-1.98
		c-0.33-1.24,0.33-2.37,1.55-2.69c1.24-0.33,2.44,0.34,2.75,1.54c0.28,1.09-0.19,2.09-1.24,2.6l3,0.67l7.36-7.19l-0.15-0.58
		l0.44-0.12l1.92,7.34l-0.44,0.12l-0.25-0.96l-2.83,2.73l1.16,0.27c0.51,0.13,0.91,0.14,1.2,0.07c0.73-0.19,0.96-0.68,0.81-1.73
		l0.44-0.12l1,3.82L309.19,277.03z"/>
</g>
<g>
	<path class="st0" d="M40.72,296.27c0.12,0.9,0.57,1.41,1.85,2.14l9.95,5.67c1.41,0.81,2.01,1.64,1.96,2.7
		c-0.06,1.28-1.03,2.16-2.29,2.09c-1.28-0.06-2.23-1.05-2.16-2.29c0.06-1.12,0.81-1.94,1.97-2.11l-2.66-1.54l-9.18,4.65l-0.03,0.6
		l-0.46-0.02l0.38-7.57l0.46,0.02l-0.05,0.99l3.52-1.76l-1.03-0.6c-0.45-0.28-0.83-0.41-1.13-0.42c-0.76-0.04-1.12,0.36-1.29,1.41
		l-0.46-0.02l0.2-3.95L40.72,296.27z"/>
</g>
<g>
	<path class="st0" d="M160.14,173.91c-0.86,0.3-1.26,0.85-1.71,2.25l-3.5,10.91c-0.5,1.54-1.19,2.31-2.24,2.47
		c-1.27,0.2-2.32-0.56-2.52-1.81c-0.2-1.27,0.57-2.39,1.8-2.59c1.11-0.18,2.06,0.39,2.47,1.49l0.95-2.92l-6.44-8.02l-0.59,0.09
		l-0.07-0.45l7.49-1.19l0.07,0.45l-0.98,0.16l2.44,3.08l0.38-1.13c0.18-0.49,0.23-0.9,0.18-1.19c-0.12-0.75-0.58-1.02-1.64-0.97
		l-0.07-0.45l3.9-0.62L160.14,173.91z"/>
</g>
<g>
	<path d="M176.67,446.68v-1.2c75.07,0,136.14-61.07,136.14-136.14S251.74,173.2,176.67,173.2v-1.2
		c75.73,0,137.34,61.61,137.34,137.34S252.4,446.68,176.67,446.68z"/>
</g>
<g>
	<path d="M161.13,445.81c-69.44-7.82-121.8-66.49-121.8-136.47c0-34.24,12.67-67.03,35.68-92.35
		c22.85-25.14,53.97-40.87,87.62-44.29l0.12,1.2c-33.36,3.39-64.2,18.98-86.85,43.9c-22.81,25.09-35.37,57.6-35.37,91.54
		c0,69.37,51.9,127.53,120.73,135.28L161.13,445.81z"/>
</g>
<g>
	<path d="M311.79,292.84c-0.08-0.76-1.74-18.75,7.6-25.05l0.67,1c-8.75,5.9-7.1,23.76-7.08,23.94L311.79,292.84z"/>
</g>
<g>
	<path d="M312.16,286.82l0-2.91l0.08-0.14c0.19-0.31,4.55-7.57,12.3-7.2l0.72,0.03l-0.17,0.71c-1.74,7.41-11.8,9.31-12.23,9.38
		L312.16,286.82z M313.37,284.25l0,1.09c2.16-0.54,8.63-2.55,10.35-7.58C317.75,277.94,313.97,283.33,313.37,284.25z"/>
</g>
<g>
	<path d="M256.61,199.19c-0.62-0.45-15.19-11.12-13.72-22.3l1.19,0.16c-1.38,10.46,13.08,21.06,13.23,21.17L256.61,199.19z"/>
</g>
<g>
	<path d="M252.36,194.91l-2.18-1.92l-0.05-0.16c-0.11-0.34-2.6-8.46,2.76-13.98l0.5-0.52l0.42,0.59c4.4,6.21-0.85,15-1.08,15.37
		L252.36,194.91z M251.23,192.31l0.82,0.72c1.03-1.98,3.81-8.15,1.19-12.77C249.4,184.85,250.94,191.24,251.23,192.31z"/>
</g>
<g>
	<path d="M146.8,142.49l-1.2-0.12c0.08-0.76,2.04-18.72,12.45-23.03l0.46,1.11C148.76,124.49,146.82,142.31,146.8,142.49z"/>
</g>
<g>
	<path d="M148.08,136.56c-0.1,0-0.16,0-0.19,0l-0.72-0.02l0.58-2.85l0.11-0.12c0.24-0.27,6.02-6.49,13.48-4.6l0.7,0.18l-0.3,0.66
		C158.76,136.3,149.55,136.56,148.08,136.56z M148.86,134.27l-0.22,1.07c2.23-0.1,8.97-0.77,11.66-5.36
		C154.42,128.94,149.64,133.48,148.86,134.27z"/>
</g>
<g>
	<path d="M148.14,69.58l-1.2-0.12c0.08-0.76,2.04-18.72,12.45-23.03l0.46,1.11C150.1,51.58,148.16,69.41,148.14,69.58z"/>
</g>
<g>
	<path d="M149.42,63.65c-0.1,0-0.16,0-0.19,0l-0.72-0.02l0.58-2.85l0.11-0.12c0.24-0.27,6.02-6.49,13.48-4.6l0.7,0.18l-0.3,0.66
		C160.1,63.39,150.89,63.65,149.42,63.65z M150.2,61.36l-0.22,1.07c2.23-0.1,8.97-0.77,11.66-5.36
		C155.76,56.03,150.98,60.57,150.2,61.36z"/>
</g>
<g>
	<path d="M31.39,287.8l-0.28-1.17c10.26-2.47,14.95-19.78,15-19.95l1.16,0.31C47.07,267.73,42.35,285.16,31.39,287.8z"/>
</g>
<g>
	<path d="M34.23,278.71c-1.47,0-3.02-0.26-4.6-0.93l-0.67-0.28l0.4-0.6c4.22-6.34,14.31-4.6,14.74-4.52l0.71,0.13l-1.02,2.72
		l-0.13,0.1C43.45,275.5,39.36,278.71,34.23,278.71z M30.82,276.94c5.65,1.92,11.07-1.8,11.97-2.46l0.38-1.03
		C40.95,273.21,34.19,272.83,30.82,276.94z"/>
</g>
<g>
	<path d="M86.16,426.39l-1.14-0.38c3.32-10.02-8.9-23.14-9.02-23.27l0.88-0.83C77.4,402.47,89.71,415.69,86.16,426.39z"/>
</g>
<g>
	<path d="M76.12,423l-0.3-0.66c-3.15-6.93,3.65-14.58,3.95-14.9l0.48-0.54l1.78,2.3l0.02,0.17c0.04,0.36,0.97,8.8-5.33,13.21
		L76.12,423z M80.2,408.81c-1.38,1.75-5.28,7.29-3.56,12.33c4.62-3.79,4.32-10.36,4.23-11.46L80.2,408.81z"/>
</g>
<g>
	<path d="M159.42,613.42c-0.1-0.31-9.84-30.98-6.01-68.69c3.83-37.64,15.74-75.74,15.86-76.12c3.32-10.03-8.9-23.15-9.02-23.28
		l0.88-0.83c0.53,0.56,12.83,13.78,9.29,24.48c-0.12,0.37-12,38.35-15.81,75.87c-3.81,37.46,5.86,67.89,5.96,68.19L159.42,613.42z"
		/>
</g>
<g>
	<path d="M160.37,465.6l-0.3-0.66c-3.15-6.92,3.65-14.58,3.95-14.9l0.48-0.53l1.78,2.3l0.02,0.17c0.04,0.36,0.97,8.8-5.33,13.21
		L160.37,465.6z M164.45,451.4c-1.38,1.75-5.28,7.29-3.56,12.33c4.62-3.79,4.32-10.35,4.23-11.46L164.45,451.4z"/>
</g>
<g>
	<path d="M150.58,506.86l-0.32-1.16c10.17-2.82,14.28-20.27,14.32-20.45l1.17,0.27C165.58,486.27,161.44,503.85,150.58,506.86z"/>
</g>
<g>
	<path d="M152.7,497.68c-1.35,0-2.77-0.22-4.21-0.79l-0.68-0.26l0.38-0.62c4-6.47,14.14-5.07,14.58-5.01l0.71,0.1l-0.92,2.76
		l-0.13,0.11C162.21,494.17,158.03,497.68,152.7,497.68z M149.64,496.03c5.71,1.73,11.01-2.17,11.88-2.86l0.35-1.04
		C159.64,491.95,152.87,491.8,149.64,496.03z"/>
</g>
<g>
	<path d="M143.57,598.99l-0.56-1.07c9.37-4.86,9.78-22.78,9.79-22.96l1.2,0.02C153.99,575.74,153.58,593.8,143.57,598.99z"/>
</g>
<g>
	<path d="M141.34,589.82c-0.61,0-1.23-0.05-1.87-0.15l-0.71-0.12l0.24-0.68c2.58-7.16,12.79-7.89,13.23-7.91l0.72-0.05l-0.33,2.89
		l-0.1,0.13C152.3,584.19,147.9,589.82,141.34,589.82z M140.42,588.58c5.95,0.47,10.32-4.4,11.03-5.25l0.13-1.09
		C149.36,582.52,142.7,583.77,140.42,588.58z"/>
</g>
<g>
	<path d="M175.78,173.21c-5.85,0-16.51-0.99-21.08-7.74c-0.69-0.77-18.1-21.07-9.2-85.75c7.02-51,2.25-73.8,2.2-74.02l1.18-0.26
		c0.05,0.23,4.87,23.19-2.18,74.45c-4.6,33.46-1.92,54.76,1.14,66.73c3.31,12.95,7.77,18.07,7.81,18.12
		c5.97,8.81,23.81,7.12,24,7.11l0.12,1.2C179.55,173.07,178.02,173.21,175.78,173.21z"/>
</g>
<g>
	<path d="M170.83,172.68l-0.14-0.08c-0.31-0.18-7.56-4.6-7.22-12.28l0.03-0.72l0.71,0.16c7.41,1.73,9.32,11.79,9.4,12.21l0.13,0.71
		L170.83,172.68z M164.67,161.13c0.18,5.97,5.57,9.74,6.5,10.34l1.09,0C171.72,169.31,169.71,162.84,164.67,161.13z"/>
</g>
<g>
	<path d="M46.23,384.37l-0.82-0.88c7.72-7.21,3.28-24.58,3.23-24.75l1.16-0.31C50,359.17,54.47,376.67,46.23,384.37z"/>
</g>
<g>
	<path d="M39.04,376.59l0.05-0.72c0.55-7.59,10.19-11.04,10.6-11.19l0.68-0.24l0.46,2.87l-0.06,0.16
		c-0.13,0.33-3.37,8.18-11.01,9.04L39.04,376.59z M49.42,366.08c-2.05,0.87-8.13,3.87-9.03,9.11c5.87-1.11,8.75-7.02,9.2-8.03
		L49.42,366.08z"/>
</g>
<g>
	<path d="M69.25,212.7c-2.1,0-4.17-0.37-6.08-1.29l0.52-1.08c9.52,4.58,24.09-5.86,24.24-5.97l0.71,0.97
		C88.13,205.7,78.35,212.7,69.25,212.7z"/>
</g>
<g>
	<path d="M80.74,209.51l-0.17,0c-0.36,0-8.85-0.17-12.42-6.98l-0.34-0.64l0.69-0.21c7.29-2.24,13.99,5.49,14.27,5.82l0.47,0.55
		L80.74,209.51z M69.6,202.64c3.16,5.06,9.72,5.61,10.82,5.66l0.94-0.55C79.81,206.15,74.81,201.6,69.6,202.64z"/>
</g>
<g>
	<path d="M52.63,223.22c0,0-6.15,0.67-9.23-3.81c4.89-2.17,10.41,2.91,10.41,2.91L52.63,223.22z"/>
</g>
<g>
	<path d="M55.07,308.9c0,0-0.98,6.11-6.11,7.9c-0.8-5.29,5.76-9.92,5.76-9.92L55.07,308.9z"/>
</g>
<g>
	<path d="M45.44,247.21c0,0,5.89,1.9,6.87,7.25c-5.35-0.02-8-6.17-8-6.17L45.44,247.21z"/>
</g>
<g>
	<path d="M47.07,287.37c0,0,7.67,0.55,9.81,5.54c-5.22,1.17-9.17-4.24-9.17-4.24L47.07,287.37z"/>
</g>
<g>
	<path d="M305.33,264.79c-0.08-0.16-8.21-16.49-19.19-15.82l-0.08-1.27c11.84-0.71,20.07,15.83,20.42,16.53L305.33,264.79z"/>
</g>
<g>
	<path d="M292.92,261.89c-2.41,0-4.86-0.6-6.77-2.39l-0.51-0.48l0.55-0.43c6.71-5.29,14.6-1.97,14.93-1.83l0.17,0.07l1.54,2.45
		l-0.6,0.3C301.96,259.72,297.52,261.89,292.92,261.89z M287.53,259.09c4.32,3.26,11.45,0.6,13.57-0.31l-0.61-0.98
		C299.37,257.39,293.04,255.26,287.53,259.09z"/>
</g>
<g>
	<path d="M276.39,216.64c-0.15-0.11-14.68-11.07-24.25-5.55l-0.64-1.11c10.31-5.94,25.04,5.17,25.66,5.64L276.39,216.64z"/>
</g>
<g>
	<path d="M259.22,220.83c-0.78,0-1.56-0.1-2.36-0.34l-0.67-0.2l0.3-0.63c3.64-7.73,12.18-8.3,12.54-8.32l0.19-0.01l2.47,1.5
		l-0.4,0.53C271.04,213.7,265.59,220.83,259.22,220.83z M257.92,219.51c5.35,0.99,10.51-4.59,11.99-6.35l-0.99-0.6
		C267.75,212.68,261.12,213.62,257.92,219.51z"/>
</g>
<g>
	<path d="M61.25,272.5c-10.17-6.17-7.52-24.43-7.41-25.21l1.26,0.19c-0.03,0.18-2.64,18.19,6.81,23.92L61.25,272.5z"/>
</g>
<g>
	<path d="M66.44,263.5c-7.95,0-12.25-6.72-12.43-7.01l-0.1-0.16l0.13-2.89l0.66,0.09c0.47,0.07,11.58,1.75,13.19,9.21l0.15,0.68
		l-0.7,0.04C67.03,263.49,66.73,263.5,66.44,263.5z M55.13,256c0.67,0.97,4.66,6.3,11.34,6.3c0.02,0,0.03,0,0.05,0
		c-1.7-5.14-9.08-7-11.34-7.45L55.13,256z"/>
</g>
<g>
	<path d="M170.77,471.99l0.32,6.09c0.01,0.43,0.05,0.58,0.11,0.71c0.13,0.28,0.39,0.29,1.01-0.01l0.96-0.45l0.31,0.65l-4.39,2.09
		l-0.31-0.65l0.59-0.28c0.97-0.49,1.05-0.59,0.96-1.98l-0.57-10.28l0.7-0.33l9.3,7.65l1.16-0.55l0.31,0.65l-6,2.85l-0.31-0.65
		l1.6-0.76L170.77,471.99z"/>
</g>
<g>
	<path d="M162.04,569.09c-10.45-5.69-8.67-24.05-8.59-24.83l1.27,0.13c-0.02,0.18-1.78,18.29,7.93,23.58L162.04,569.09z"/>
</g>
<g>
	<path d="M165.92,559.7c-7.54,0-11.9-6.16-12.09-6.43l-0.11-0.16l-0.01-2.89l0.66,0.06c0.48,0.05,11.65,1.2,13.61,8.58l0.18,0.68
		l-0.7,0.08C166.94,559.67,166.42,559.7,165.92,559.7z M154.92,552.72c0.72,0.94,4.98,6.08,11.67,5.75
		c-1.94-5.05-9.4-6.56-11.68-6.91L154.92,552.72z"/>
</g>
<g>
	<path d="M299.65,370.81l-1.17-0.5c0.07-0.17,7.11-16.95-0.59-24.87l0.91-0.89C307.1,353.08,299.96,370.09,299.65,370.81z"/>
</g>
<g>
	<path d="M301.01,364.81l-0.61-0.26c-0.44-0.18-10.77-4.6-10.46-12.23l0.03-0.7l0.69,0.13c8.39,1.62,11.04,9.76,11.15,10.1
		l0.06,0.18L301.01,364.81z M291.15,353.11c0.36,5.41,7.03,9.05,9.1,10.06l0.34-1.11C300.18,360.96,297.65,354.77,291.15,353.11z"/>
</g>
<g>
	<path d="M315.88,373.44c0,0-1.34-4.26-5.61-5.08C310.12,372.18,315.88,373.44,315.88,373.44L315.88,373.44z"/>
</g>
<g>
	<path d="M296.58,369.09c0,0-1.34-4.26-5.61-5.08C290.82,367.83,296.58,369.09,296.58,369.09L296.58,369.09z"/>
</g>
<g>
	<path d="M311.36,385.11c0,0,4.9,1.05,7.34-2.54c-3.45-1.66-7.34,2.12-7.34,2.12V385.11z"/>
</g>
<g>
	<path d="M228.29,176.23c0,0-2.34-4.43-6.66-4c0.95,3.71,6.34,4.26,6.34,4.26L228.29,176.23z"/>
</g>
<g>
	<path d="M237.46,178.93c0,0,2.62-4.27,0.05-7.77c-2.71,2.7-0.44,7.63-0.44,7.63L237.46,178.93z"/>
</g>
<g>
	<path d="M243.83,187.58c0,0,4.05-2.95,3-7.16c-3.54,1.47-3.31,6.89-3.31,6.89L243.83,187.58z"/>
</g>
<g>
	<path d="M260.14,185.81c0,0,2.46-4.36-0.24-7.76c-2.61,2.8-0.16,7.64-0.16,7.64L260.14,185.81z"/>
</g>
<g>
	<path d="M266.55,189.9c0,0-4.42-2.36-7.76,0.41c2.86,2.54,7.64-0.02,7.64-0.02L266.55,189.9z"/>
</g>
<g>
	<path d="M273.63,197.38c0,0,2.45-4.37-0.27-7.76c-2.6,2.82-0.13,7.64-0.13,7.64L273.63,197.38z"/>
</g>
<g>
	<path d="M275.75,222.29c0,0,4.99,0.44,6.97-3.43c-3.63-1.21-7.02,3.02-7.02,3.02L275.75,222.29z"/>
</g>
<g>
	<path d="M265.22,238.57c0,0,4.94,0.81,7.21-2.9c-3.53-1.48-7.23,2.49-7.23,2.49L265.22,238.57z"/>
</g>
<g>
	<path d="M259.98,273.69c0,0,3.94-3.1,2.74-7.27c-3.48,1.6-3.05,7.01-3.05,7.01L259.98,273.69z"/>
</g>
<g>
	<path d="M270.77,284.63c0,0,2.29-4.45-0.54-7.75c-2.5,2.9,0.14,7.64,0.14,7.64L270.77,284.63z"/>
</g>
<g>
	<path d="M257.72,255.93c0,0,4.95-0.79,5.93-5.02c-3.82-0.29-6.08,4.64-6.08,4.64L257.72,255.93z"/>
</g>
<g>
	<path d="M277.63,208.9c0,0-0.44-4.99-4.59-6.27c-0.56,3.79,4.2,6.39,4.2,6.39L277.63,208.9z"/>
</g>
<g>
	<path d="M271.21,229.17c0,0,0.28-5-3.64-6.86c-1.1,3.67,3.24,6.92,3.24,6.92L271.21,229.17z"/>
</g>
<g>
	<path d="M260.61,246.83c0,0,0.24-5.01-3.92-6.92c-1.11,3.67,3.49,6.98,3.49,6.98L260.61,246.83z"/>
</g>
<g>
	<path d="M257.89,267.16c0,0-0.08-5.02-4.35-6.66c-0.88,3.73,3.93,6.75,3.93,6.75L257.89,267.16z"/>
</g>
<g>
	<path d="M265.22,281.06c0,0-3.74-3.34-7.85-1.32c2.14,3.18,7.62,1.69,7.62,1.69L265.22,281.06z"/>
</g>
<g>
	<path d="M281.01,286.1c0,0-5-0.45-7.09,3.62c3.61,1.27,7.13-3.19,7.13-3.19L281.01,286.1z"/>
</g>
<g>
	<path d="M227.78,194.44c0,0,4.52,2.16,7.73-0.76c-2.97-2.41-7.64,0.36-7.64,0.36L227.78,194.44z"/>
</g>
<g>
	<path d="M241.48,195.04c0,0,0.35-5-3.55-6.91c-1.15,3.65,3.14,6.97,3.14,6.97L241.48,195.04z"/>
</g>
<g>
	<path d="M299.5,406.44c0,0,4.9,1.05,7.34-2.54c-3.45-1.66-7.34,2.12-7.34,2.12V406.44z"/>
</g>
<g>
	<path d="M310.25,357.78c0,0,2.34-4.43-0.46-7.75c-2.53,2.88,0.06,7.64,0.06,7.64L310.25,357.78z"/>
</g>
<g>
	<path d="M304.96,396.19c0,0-4.66-2.1-4.61-6.44c3.78,0.62,4.91,6.41,4.91,6.41L304.96,396.19z"/>
</g>
<g>
	<path d="M285.21,382.94c0,0-4.66-2.1-4.61-6.44c3.78,0.62,4.91,6.41,4.91,6.41L285.21,382.94z"/>
</g>
<g>
	<path d="M295.5,419.27c0,0-4.85-1.63-5.23-5.95c3.82,0.24,5.53,5.89,5.53,5.89L295.5,419.27z"/>
</g>
<g>
	<path d="M314,307.97l-0.97-0.4c-0.68-0.28-16.77-7.09-16.02-18.08l0.05-0.7l0.68,0.15c12.06,2.69,15.68,14.94,15.71,15.06
		l0.02,0.08L314,307.97z M298.2,290.3c0.06,8.27,10.97,14.12,14.33,15.72l-0.23-1.71C312.08,303.58,308.67,293.05,298.2,290.3z"/>
</g>
<g>
	<path d="M291.38,235.91l-0.32-0.99c-0.23-0.71-5.54-17.34,3.29-23.92l0.56-0.42l0.33,0.62c5.81,10.91-1.13,21.63-1.21,21.74
		l-0.05,0.07L291.38,235.91z M294.51,212.41c-6.23,5.43-3.57,17.51-2.61,21.11l1.15-1.29C293.46,231.59,299.23,222.15,294.51,212.41
		z"/>
</g>
<g>
	<path d="M143.83,93.85c-0.01-0.18-0.93-18.36-11.3-22.16l0.44-1.2c11.17,4.09,12.1,22.52,12.14,23.3L143.83,93.85z"/>
</g>
<g>
	<path d="M142.29,87.85c-2.68,0-11.34-0.48-13.94-6.5l-0.28-0.64l0.68-0.18c8.27-2.17,14.18,4.01,14.43,4.28l0.13,0.14l0.43,2.86
		l-0.66,0.03C143,87.84,142.72,87.85,142.29,87.85z M129.78,81.52c2.66,4.72,10.26,5.11,12.56,5.12l-0.17-1.14
		C141.32,84.68,136.35,80.2,129.78,81.52z"/>
</g>
<g>
	<path d="M149.24,23.1c-0.01-0.18-1.35-18.33-11.81-21.89L137.84,0c11.26,3.83,12.62,22.23,12.67,23.01L149.24,23.1z"/>
</g>
<g>
	<path d="M147,17.15c-3.16,0-10.96-0.59-13.53-6.19l-0.29-0.64l0.67-0.19c8.21-2.36,14.27,3.69,14.52,3.94l0.13,0.13l0.5,2.85
		l-0.66,0.05C148.24,17.11,147.75,17.15,147,17.15z M134.9,11.1c2.77,4.65,10.37,4.87,12.68,4.83l-0.2-1.14
		C146.52,13.99,141.44,9.63,134.9,11.1z"/>
</g>
<g>
	<path d="M174.23,184.55l-1.16-0.52c4.87-10.86,23.3-10.5,24.1-10.47l-0.03,1.27C196.93,174.84,178.75,174.47,174.23,184.55z"/>
</g>
<g>
	<path d="M182.91,189.64l-0.13-0.69c-1.58-8.4,5-13.86,5.28-14.09l0.14-0.12l2.88-0.23l-0.01,0.67c-0.01,0.48-0.3,11.7-7.51,14.23
		L182.91,189.64z M188.68,175.91c-0.88,0.79-5.69,5.43-4.84,12.08c4.89-2.33,5.82-9.88,5.99-12.18L188.68,175.91z"/>
</g>
<g>
	<path d="M56.9,353.6c-11.68-2.27-15.53-20.31-15.68-21.08l1.25-0.26c0.04,0.18,3.83,17.98,14.68,20.08L56.9,353.6z"/>
</g>
<g>
	<path d="M53.9,344.21c-5.24,0-9.13-2.95-9.35-3.12l-0.15-0.11l-0.88-2.76l0.65-0.14c0.47-0.1,11.47-2.37,15.57,4.07l0.38,0.59
		l-0.64,0.28C57.53,343.89,55.64,344.21,53.9,344.21z M45.44,340.25c0.97,0.68,6.59,4.31,12.87,1.96
		c-3.38-4.24-10.95-3.42-13.22-3.06L45.44,340.25z"/>
</g>
<g>
	<path d="M117.08,428.8c-8.56,0-17.43-5.73-17.92-6.05l0.7-1.07c0.15,0.1,15.44,9.97,24.59,3.78l0.71,1.06
		C122.72,428.17,119.92,428.8,117.08,428.8z"/>
</g>
<g>
	<path d="M107.41,426.45l-2.58-1.32l0.36-0.56c0.26-0.4,6.41-9.81,13.87-8.16l0.68,0.15l-0.25,0.65c-3.07,7.97-11.54,9.16-11.9,9.21
		L107.41,426.45z M106.58,424.68l1.03,0.53c1.16-0.21,7.7-1.63,10.47-7.73C112.71,416.87,107.94,422.81,106.58,424.68z"/>
</g>
<g>
	<path d="M309.94,342.67l-1.19-0.13c0.08-0.76,2.2-18.7,12.65-22.92l0.45,1.12C312.06,324.68,309.97,342.49,309.94,342.67z"/>
</g>
<g>
	<path d="M311.4,336.75c-0.16,0-0.27,0-0.31,0l-0.72-0.02l0.6-2.84l0.12-0.12c0.24-0.26,6.07-6.44,13.52-4.48l0.7,0.18l-0.31,0.65
		C322.04,336.42,313.2,336.75,311.4,336.75z M312.08,334.46l-0.23,1.07c2.23-0.08,8.97-0.69,11.7-5.26
		C317.67,329.19,312.87,333.68,312.08,334.46z"/>
</g>
<g>
	<g>
		<path class="st1" d="M329.08,323.3c-2.6,1.54-5.99,0.49-7.67-2.36c-1.7-2.87-0.97-6.32,1.7-7.9c2.62-1.55,6.02-0.54,7.7,2.31
			C332.54,318.27,331.8,321.69,329.08,323.3z M328.17,314.51c-0.61,0.05-1.62,0.49-3.33,1.5c-1.85,1.09-2.69,1.74-2.98,2.35
			c-0.35,0.67-0.28,1.46,0.17,2.21c0.49,0.82,1.24,1.27,2.05,1.22c0.61-0.05,1.64-0.51,3.28-1.48c1.92-1.13,2.74-1.77,3.03-2.37
			c0.35-0.67,0.28-1.46-0.17-2.21C329.73,314.91,328.97,314.47,328.17,314.51z"/>
	</g>
</g>
<g>
	<path d="M264.32,415.04l-0.86-0.84c0.53-0.55,13.2-13.43,24.04-10.36l-0.33,1.16C277.01,402.12,264.45,414.91,264.32,415.04z"/>
</g>
<g>
	<path d="M269.09,411.25c-0.13-0.1-0.21-0.17-0.24-0.19l-0.56-0.46l2.22-1.88l0.17-0.03c0.35-0.06,8.74-1.37,13.43,4.75l0.44,0.57
		l-0.64,0.33C277.7,417.51,270.51,412.35,269.09,411.25z M271.04,409.86l-0.83,0.71c1.81,1.3,7.52,4.95,12.47,3.01
		C278.68,409.12,272.13,409.73,271.04,409.86z"/>
</g>
<g>
	<path d="M292.19,234.23c-1.44-2.04-1.94-4-1.51-5.87c0.45-1.95,1.73-3.45,3.93-4.6l0.16,0.24c-0.7,0.64-1.02,1.07-1.51,1.97
		c-0.53,0.97-0.88,1.9-1.11,2.87c-0.46,2.01-0.37,3.53,0.29,5.24L292.19,234.23z"/>
</g>
<g>
	<path d="M149.66,37.64l0.1-1.04c0.07-0.74,1.81-18.12,12.53-20.65l0.68-0.16l0.06,0.7c1,12.32-9.64,19.4-9.74,19.47L153.21,36
		L149.66,37.64z M161.87,17.32c-7.88,2.5-10.24,14.65-10.78,18.33l1.57-0.73C153.28,34.5,162.33,28.13,161.87,17.32z"/>
</g>
<g>
	<path d="M156.21,26.35c0.86,2.34,0.82,4.37-0.08,6.06c-0.94,1.76-2.57,2.87-5,3.42l-0.09-0.28c0.84-0.44,1.27-0.77,1.97-1.5
		c0.77-0.8,1.35-1.6,1.82-2.48c0.97-1.81,1.28-3.31,1.09-5.13L156.21,26.35z"/>
</g>
<g>
	<path d="M26.77,331.97l-0.05-0.7c-0.83-12.33,9.9-19.26,10.01-19.33l0.08-0.04l3.57-1.59l-0.11,1.04
		c-0.08,0.74-2.06,18.09-12.81,20.47L26.77,331.97z M37.34,312.98c-0.63,0.42-9.77,6.66-9.46,17.48
		c7.91-2.4,10.44-14.51,11.03-18.18L37.34,312.98z"/>
</g>
<g>
	<path d="M33.67,321.5c-0.82-2.36-0.76-4.38,0.17-6.06c0.97-1.75,2.61-2.84,5.04-3.35l0.09,0.28c-0.85,0.42-1.28,0.75-1.99,1.48
		c-0.78,0.79-1.37,1.58-1.86,2.46c-1,1.8-1.33,3.29-1.16,5.12L33.67,321.5z"/>
</g>
<g>
	<path d="M304.95,299.05c2.49-0.21,4.43,0.36,5.83,1.68c1.45,1.37,2.1,3.23,1.98,5.72l-0.29,0.02c-0.2-0.93-0.41-1.43-0.93-2.3
		c-0.57-0.95-1.19-1.72-1.92-2.41c-1.49-1.42-2.86-2.11-4.66-2.4L304.95,299.05z"/>
</g>
<g>
	<g>
		<path d="M217.32,191.05c-2.76,0-5.46-0.67-7.74-2.47l-0.55-0.43l0.51-0.48c9.03-8.44,21.18-4.51,21.3-4.47l0.08,0.03l3.49,1.76
			l-0.88,0.57C233.09,185.86,225.01,191.05,217.32,191.05z M210.91,188.06c6.86,4.61,17.84-1.09,21.06-2.95l-1.54-0.78
			C229.71,184.1,219.09,180.98,210.91,188.06z"/>
	</g>
	<g>
		<path d="M221.24,188.18c0.92-2.32,2.29-3.81,4.09-4.48c1.87-0.69,3.83-0.44,6,0.77l-0.11,0.27c-0.92-0.23-1.46-0.27-2.47-0.19
			c-1.1,0.09-2.07,0.3-3.01,0.64c-1.93,0.71-3.16,1.62-4.22,3.11L221.24,188.18z"/>
	</g>
</g>
<g>
	<g>
		<path d="M144.13,129.7l-0.89-0.55c-0.63-0.39-15.42-9.68-12.92-20.4l0.16-0.68l0.65,0.26c11.48,4.58,13.09,17.26,13.1,17.38
			l0,0.04L144.13,129.7z M131.35,109.72c-1.26,8.18,8.57,15.69,11.63,17.81l0.05-1.73C142.92,125.06,141.24,114.12,131.35,109.72z"
			/>
	</g>
	<g>
		<path d="M135.63,119.12c2.49-0.16,4.42,0.45,5.79,1.8c1.42,1.4,2.03,3.28,1.86,5.76l-0.29,0.01c-0.18-0.93-0.38-1.44-0.88-2.32
			c-0.55-0.96-1.15-1.75-1.86-2.45c-1.46-1.45-2.81-2.17-4.61-2.5L135.63,119.12z"/>
	</g>
</g>
<g>
	<g>
		<path d="M66.61,248.96l-0.34-0.61c-5.94-10.84,0.88-21.64,0.95-21.75l0.05-0.07l2.57-2.95l0.34,0.99
			c0.24,0.7,5.74,17.28-3.02,23.96L66.61,248.96z M68.22,227.28c-0.4,0.64-6.06,10.15-1.23,19.83c6.17-5.5,3.37-17.55,2.36-21.14
			L68.22,227.28z"/>
	</g>
	<g>
		<path d="M69.66,237.14c-2.02-1.46-3.13-3.16-3.32-5.07c-0.2-1.99,0.52-3.82,2.23-5.63l0.23,0.18c-0.45,0.83-0.62,1.35-0.8,2.35
			c-0.19,1.09-0.23,2.08-0.12,3.08c0.21,2.05,0.79,3.46,1.97,4.86L69.66,237.14z"/>
	</g>
</g>
<g>
	<g>
		<path d="M78.81,392.67c-10.08,0-16.64-7.88-16.71-7.97l-0.05-0.07l-2.01-3.35l1.05-0.01c0.75,0,18.21-0.12,21.86,10.27l0.23,0.66
			l-0.69,0.13C81.22,392.56,79.99,392.67,78.81,392.67z M63.06,383.97c0.49,0.58,7.77,8.91,18.49,7.29
			c-3.33-7.57-15.65-8.63-19.37-8.77L63.06,383.97z"/>
	</g>
	<g>
		<path d="M72.89,385.64c-2.02,1.47-3.97,2-5.85,1.59c-1.95-0.42-3.47-1.67-4.66-3.86l0.24-0.16c0.65,0.69,1.09,1.01,1.99,1.48
			c0.98,0.52,1.91,0.86,2.89,1.07c2.01,0.43,3.54,0.32,5.23-0.37L72.89,385.64z"/>
	</g>
</g>
<g>
	<g>
		<path d="M151.12,456.65l-0.69-0.1c-12.23-1.76-16.77-13.71-16.81-13.83l-0.02-0.08l-0.81-3.82l0.99,0.33
			c0.7,0.23,17.26,5.79,17.34,16.8L151.12,456.65z M134.76,442.35c0.28,0.7,4.48,10.94,15.12,12.9
			c-0.69-8.24-12.01-13.24-15.48-14.58L134.76,442.35z"/>
	</g>
	<g>
		<path d="M143.51,447.11c-2.38,0.73-4.4,0.6-6.05-0.39c-1.71-1.03-2.74-2.71-3.16-5.16l0.28-0.08c0.39,0.86,0.7,1.31,1.4,2.05
			c0.76,0.81,1.53,1.43,2.39,1.95c1.76,1.06,3.24,1.45,5.07,1.35L143.51,447.11z"/>
	</g>
</g>
<g>
	<g>
		<path d="M166.3,538.92l-0.56-0.42c-9.91-7.38-8.19-20.05-8.18-20.17l0.02-0.08l1.11-3.75l0.72,0.76
			c0.51,0.54,12.4,13.33,7.22,23.05L166.3,538.92z M158.75,518.54c-0.09,0.75-1.29,11.75,7.13,18.55c3.32-7.57-4.23-17.36-6.64-20.2
			L158.75,518.54z"/>
	</g>
	<g>
		<path d="M164.17,526.9c-2.45-0.49-4.16-1.57-5.13-3.23c-1.01-1.72-1.11-3.69-0.31-6.04l0.28,0.06c-0.07,0.94-0.01,1.48,0.25,2.47
			c0.28,1.07,0.66,1.99,1.17,2.85c1.04,1.78,2.16,2.82,3.81,3.6L164.17,526.9z"/>
	</g>
</g>
<g>
	<g>
		<path d="M286.24,397.11c-0.25,0-0.39-0.01-0.4-0.01l-0.08-0.01l-3.83-0.77l0.69-0.78c0.49-0.56,12.14-13.56,22.3-9.28l0.64,0.27
			l-0.37,0.6C299.38,396.6,288.47,397.11,286.24,397.11z M285.94,395.9c0.76,0.03,11.82,0.22,17.83-8.78
			c-7.82-2.62-16.91,5.79-19.52,8.44L285.94,395.9z"/>
	</g>
	<g>
		<path d="M293.78,389.75c-0.27,2.48-1.19,4.28-2.76,5.4c-1.62,1.16-3.57,1.44-5.99,0.86l0.04-0.29c0.95-0.02,1.48-0.13,2.44-0.48
			c1.04-0.38,1.92-0.84,2.73-1.42c1.67-1.2,2.61-2.4,3.24-4.12L293.78,389.75z"/>
	</g>
</g>
<g>
	<g>
		<path d="M302.19,255.27c2.66-3.17,3.82-6.61,3.09-9.3c-0.11-0.41-0.32-0.65-0.59-0.57c-0.18,0.05-0.21,0.11-0.68,0.72
			c-0.45,0.66-1.28,1.23-2.1,1.45c-2.28,0.62-4.62-0.8-5.26-3.16c-0.67-2.46,0.84-4.82,3.57-5.57c3.19-0.87,5.71,1.04,6.84,5.18
			s-0.13,8.35-3.67,12.2L302.19,255.27z"/>
	</g>
</g>
<g>
	<g>
		<path d="M292.78,380.36c4.07,0.72,7.64,0.01,9.6-1.97c0.3-0.3,0.4-0.6,0.2-0.8c-0.13-0.13-0.2-0.13-0.97-0.23
			c-0.8-0.06-1.7-0.5-2.3-1.09c-1.68-1.66-1.62-4.4,0.11-6.14c1.79-1.81,4.6-1.68,6.6,0.31c2.34,2.33,1.95,5.47-1.07,8.51
			c-3.03,3.04-7.29,4.06-12.4,2.91L292.78,380.36z"/>
	</g>
</g>
<g>
	<g>
		<path d="M275.9,403.07c-3.93-1.29-7.56-1.09-9.78,0.59c-0.34,0.26-0.48,0.54-0.31,0.76c0.11,0.15,0.18,0.16,0.93,0.37
			c0.78,0.18,1.62,0.73,2.12,1.41c1.42,1.89,0.98,4.58-0.98,6.06c-2.03,1.53-4.79,1.02-6.49-1.24c-1.99-2.64-1.16-5.69,2.27-8.27
			c3.43-2.59,7.79-2.98,12.69-1.12L275.9,403.07z"/>
	</g>
</g>
<g>
	<g>
		<path d="M243.09,189.7c-0.33,4.12,0.72,7.6,2.88,9.37c0.33,0.27,0.64,0.34,0.82,0.12c0.12-0.15,0.11-0.21,0.14-0.99
			c-0.01-0.8,0.33-1.74,0.87-2.4c1.5-1.83,4.22-2.03,6.12-0.47c1.97,1.61,2.12,4.41,0.32,6.6c-2.09,2.56-5.26,2.47-8.58-0.25
			s-4.74-6.87-4.08-12.07L243.09,189.7z"/>
	</g>
</g>
<g>
	<g>
		<path d="M313.81,311.42c-3.96,1.19-6.82,3.44-7.68,6.08c-0.13,0.4-0.09,0.72,0.18,0.8c0.18,0.06,0.24,0.03,0.97-0.23
			c0.74-0.3,1.74-0.32,2.55-0.06c2.25,0.73,3.42,3.2,2.67,5.53c-0.79,2.42-3.34,3.58-6.04,2.7c-3.14-1.02-4.21-4-2.88-8.08
			s4.68-6.91,9.76-8.19L313.81,311.42z"/>
	</g>
</g>
<g>
	<g>
		<path d="M42.82,335.72c3.4-2.36,5.42-5.38,5.42-8.16c0-0.43-0.14-0.71-0.42-0.71c-0.19,0-0.23,0.05-0.85,0.52
			c-0.61,0.52-1.56,0.85-2.4,0.85c-2.36,0-4.25-1.98-4.25-4.43c0-2.55,2.07-4.43,4.9-4.43c3.3,0,5.24,2.5,5.24,6.79
			s-2.31,8.02-6.75,10.8L42.82,335.72z"/>
	</g>
</g>
<g>
	<g>
		<path d="M152.51,444.09c-0.67-4.08-2.53-7.21-5.04-8.4c-0.38-0.18-0.7-0.18-0.82,0.08c-0.08,0.17-0.06,0.23,0.1,0.99
			c0.21,0.78,0.1,1.77-0.27,2.54c-1.01,2.13-3.61,2.99-5.83,1.93c-2.3-1.09-3.12-3.78-1.9-6.33c1.42-2.98,4.51-3.66,8.39-1.82
			s6.25,5.53,6.86,10.73L152.51,444.09z"/>
	</g>
</g>
<g>
	<g>
		<path d="M168.11,474.9c-4.12,0.38-7.37,2.01-8.74,4.44c-0.21,0.37-0.23,0.68,0.02,0.82c0.16,0.09,0.23,0.08,1-0.03
			c0.79-0.15,1.77,0.03,2.51,0.44c2.06,1.16,2.72,3.81,1.51,5.95c-1.25,2.22-3.99,2.84-6.45,1.45c-2.88-1.63-3.33-4.76-1.22-8.49
			s5.96-5.84,11.19-6.09L168.11,474.9z"/>
	</g>
</g>
<g>
	<g>
		<path d="M155.54,533.01c-3.93,1.28-6.74,3.59-7.55,6.25c-0.12,0.41-0.07,0.72,0.2,0.8c0.18,0.05,0.24,0.02,0.96-0.25
			c0.74-0.32,1.74-0.36,2.55-0.12c2.26,0.68,3.49,3.12,2.79,5.47c-0.73,2.44-3.26,3.65-5.97,2.83c-3.16-0.95-4.29-3.91-3.06-8.02
			c1.24-4.11,4.53-7.01,9.57-8.4L155.54,533.01z"/>
	</g>
</g>
<g>
	<g>
		<path d="M158.52,607.83c3.34-2.43,5.3-5.5,5.24-8.28c-0.01-0.42-0.15-0.7-0.44-0.7c-0.19,0-0.23,0.05-0.84,0.54
			c-0.6,0.53-1.54,0.88-2.38,0.9c-2.36,0.05-4.29-1.89-4.34-4.34c-0.06-2.55,1.98-4.48,4.81-4.54c3.3-0.07,5.29,2.39,5.39,6.68
			c0.09,4.29-2.14,8.07-6.51,10.95L158.52,607.83z"/>
	</g>
</g>
<g>
	<g>
		<path d="M192.59,174.32c-1.06-4-3.2-6.93-5.82-7.88c-0.4-0.15-0.71-0.11-0.81,0.16c-0.06,0.18-0.04,0.24,0.2,0.98
			c0.28,0.75,0.27,1.75-0.02,2.55c-0.81,2.22-3.31,3.32-5.62,2.48c-2.39-0.87-3.46-3.46-2.49-6.12c1.13-3.11,4.14-4.07,8.17-2.6
			c4.03,1.47,6.75,4.91,7.85,10.03L192.59,174.32z"/>
	</g>
</g>
<g>
	<g>
		<path d="M143.6,118.1c3.84-1.55,6.48-4.04,7.1-6.75c0.09-0.41,0.02-0.72-0.26-0.78c-0.18-0.04-0.24-0.01-0.94,0.32
			c-0.71,0.37-1.71,0.48-2.53,0.29c-2.3-0.52-3.7-2.87-3.16-5.27c0.57-2.48,3.01-3.86,5.77-3.23c3.22,0.73,4.55,3.6,3.6,7.79
			c-0.95,4.19-4.04,7.31-8.98,9.04L143.6,118.1z"/>
	</g>
</g>
<g>
	<g>
		<path d="M148.25,56.73c-4.8-2.09-7.64-5.43-8.29-9.67s0.9-7.01,4.16-7.5c2.8-0.42,5.13,1.13,5.51,3.65
			c0.37,2.43-1.2,4.67-3.54,5.02c-0.84,0.13-1.82-0.06-2.5-0.48c-0.68-0.38-0.73-0.41-0.92-0.39c-0.28,0.04-0.38,0.34-0.31,0.76
			c0.42,2.75,2.87,5.43,6.58,7.26L148.25,56.73z"/>
	</g>
</g>
<g>
	<g>
		<path d="M50.79,256.29c-4.14,0.03-7.51,1.37-9.09,3.66c-0.24,0.35-0.29,0.66-0.05,0.82c0.16,0.11,0.22,0.09,0.99,0.05
			c0.8-0.08,1.76,0.18,2.46,0.66c1.95,1.34,2.38,4.04,0.99,6.06c-1.44,2.1-4.22,2.48-6.55,0.88c-2.72-1.87-2.91-5.03-0.48-8.57
			s6.44-5.31,11.67-5.09L50.79,256.29z"/>
	</g>
</g>
<g>
	<g>
		<path d="M72.22,221.28c3.85,1.52,7.48,1.53,9.8-0.01c0.35-0.24,0.51-0.51,0.35-0.74c-0.1-0.16-0.17-0.17-0.9-0.42
			c-0.77-0.22-1.57-0.83-2.04-1.53c-1.31-1.97-0.7-4.63,1.34-5.99c2.12-1.41,4.84-0.73,6.41,1.62c1.83,2.75,0.82,5.75-2.75,8.13
			c-3.57,2.38-7.96,2.52-12.73,0.37L72.22,221.28z"/>
	</g>
</g>
<g>
	<g>
		<path d="M69,393.2c-1.93,3.66-2.33,7.27-1.05,9.74c0.2,0.38,0.45,0.56,0.7,0.43c0.17-0.09,0.19-0.15,0.52-0.85
			c0.3-0.74,0.99-1.47,1.74-1.86c2.1-1.09,4.68-0.2,5.81,1.98c1.17,2.26,0.2,4.89-2.31,6.2c-2.93,1.52-5.8,0.19-7.78-3.62
			s-1.64-8.18,1.01-12.7L69,393.2z"/>
	</g>
</g>
<g>
	<path class="st1" d="M151.55,161.96l-4.21-4.4c-0.29-0.32-0.41-0.4-0.55-0.46c-0.29-0.13-0.48,0.04-0.76,0.66l-0.43,0.97
		l-0.65-0.29l1.97-4.44l0.65,0.29l-0.27,0.6c-0.41,1.01-0.41,1.13,0.56,2.13l7.13,7.42l-0.31,0.71l-12.04,0.26l-0.52,1.18
		l-0.65-0.29l2.69-6.07l0.65,0.29l-0.72,1.62L151.55,161.96z"/>
</g>
<g>
	<path class="st1" d="M245.6,173.93c-0.31,1.99-0.96,3.02-2.43,3.88c-0.96,0.56-1.87,0.71-2.6,0.42c-0.75-0.28-1.25-0.8-2.05-2.18
		l-3.18-5.48l-1.56,0.91l-0.34-0.58l0.72-0.42c1.89-1.1,2.57-1.59,3.49-2.37l3.98,6.86c0.56,0.96,0.69,1.13,1.05,1.26
		c0.34,0.15,0.72,0.11,1.07-0.09c0.7-0.41,1.23-1.37,1.26-2.29c0.01-0.69-0.13-1.14-0.79-2.28l-2.67-4.6l-1.56,0.91l-0.34-0.58
		l0.72-0.42c1.89-1.1,2.57-1.59,3.49-2.37l5.13,8.84l1.54-0.89l0.34,0.58l-4.34,2.52L245.6,173.93z"/>
</g>
<g>
	<path class="st1" d="M82.95,428.79c0.68-1.9,1.51-2.79,3.11-3.35c1.04-0.37,1.97-0.35,2.63,0.08c0.69,0.42,1.07,1.02,1.6,2.53
		l2.1,5.98l1.71-0.6l0.22,0.64l-0.79,0.28c-2.06,0.72-2.82,1.08-3.87,1.67l-2.62-7.49c-0.37-1.04-0.46-1.24-0.79-1.44
		c-0.3-0.21-0.69-0.24-1.07-0.11c-0.76,0.27-1.47,1.11-1.67,2.01c-0.13,0.68-0.09,1.15,0.35,2.39l1.76,5.02l1.71-0.6l0.22,0.64
		l-0.79,0.28c-2.06,0.72-2.82,1.08-3.87,1.67l-3.38-9.65l-1.68,0.59l-0.22-0.64l4.74-1.66L82.95,428.79z"/>
</g>
<g>
	<path class="st1" d="M58.88,271.69l1.45,5.92c0.1,0.42,0.16,0.56,0.24,0.67c0.19,0.25,0.44,0.21,0.99-0.19l0.85-0.62l0.42,0.58
		l-3.93,2.86l-0.42-0.58l0.53-0.39c0.86-0.66,0.92-0.78,0.58-2.12l-2.47-9.99l0.62-0.45l10.56,5.79l1.04-0.76l0.42,0.58l-5.36,3.91
		l-0.42-0.58l1.43-1.05L58.88,271.69z"/>
</g>
<g>
	<g>
		<path class="st1" d="M281.22,242.21c3.02,0,5.4,2.62,5.4,5.93c0,3.34-2.38,5.93-5.48,5.93c-3.05,0-5.46-2.6-5.46-5.91
			C275.68,244.78,278.07,242.21,281.22,242.21z M277.54,250.24c0.56,0.27,1.64,0.4,3.63,0.4c2.15,0,3.21-0.13,3.76-0.5
			c0.64-0.4,0.98-1.11,0.98-1.99c0-0.95-0.42-1.72-1.14-2.09c-0.56-0.27-1.67-0.4-3.58-0.4c-2.22,0-3.26,0.13-3.81,0.5
			c-0.64,0.4-0.98,1.11-0.98,1.99C276.4,249.1,276.82,249.87,277.54,250.24z"/>
	</g>
</g>
<g>
	<g>
		<path class="st1" d="M130.71,63.53c2.77,1.2,3.91,4.56,2.59,7.6c-1.33,3.06-4.55,4.49-7.39,3.26c-2.79-1.21-3.97-4.56-2.65-7.59
			C124.61,63.68,127.82,62.27,130.71,63.53z M124.14,69.42c0.4,0.47,1.35,1.02,3.17,1.81c1.97,0.86,2.99,1.16,3.65,1.04
			c0.74-0.11,1.34-0.63,1.69-1.43c0.38-0.88,0.3-1.75-0.21-2.37c-0.4-0.47-1.37-1.03-3.12-1.79c-2.04-0.89-3.04-1.18-3.7-1.06
			c-0.74,0.11-1.34,0.63-1.69,1.43C123.55,67.92,123.63,68.8,124.14,69.42z"/>
	</g>
</g>
<g>
	<g>
		<path class="st1" d="M60.23,360.12c-2.93-0.75-4.59-3.88-3.77-7.09c0.83-3.23,3.78-5.16,6.78-4.39c2.95,0.75,4.64,3.87,3.82,7.08
			C66.23,359,63.29,360.9,60.23,360.12z M65.79,353.25c-0.47-0.4-1.49-0.79-3.42-1.28c-2.08-0.53-3.14-0.67-3.77-0.44
			c-0.71,0.23-1.23,0.83-1.44,1.68c-0.24,0.93-0.02,1.77,0.59,2.31c0.47,0.4,1.52,0.8,3.37,1.27c2.16,0.55,3.19,0.68,3.82,0.46
			c0.71-0.23,1.23-0.83,1.44-1.68C66.61,354.64,66.39,353.79,65.79,353.25z"/>
	</g>
</g>
<g>
	<g>
		<path class="st1" d="M60.72,203.25c2.89,0.89,4.4,4.09,3.42,7.26c-0.98,3.19-4.02,4.97-6.99,4.06c-2.91-0.89-4.45-4.08-3.48-7.25
			C54.67,204.08,57.71,202.33,60.72,203.25z M54.84,209.84c0.45,0.42,1.45,0.86,3.35,1.45c2.05,0.63,3.1,0.82,3.74,0.62
			c0.72-0.19,1.26-0.78,1.52-1.61c0.28-0.91,0.1-1.77-0.47-2.34c-0.45-0.42-1.48-0.87-3.3-1.43c-2.13-0.65-3.15-0.83-3.79-0.64
			c-0.72,0.19-1.26,0.78-1.52,1.61C54.09,208.42,54.27,209.28,54.84,209.84z"/>
	</g>
</g>
<g>
	<g>
		<path class="st1" d="M162.88,576.74c-2.51-1.67-3.05-5.18-1.22-7.93c1.85-2.78,5.27-3.62,7.85-1.9c2.54,1.69,3.11,5.18,1.27,7.94
			C168.91,577.66,165.5,578.48,162.88,576.74z M170.39,572.09c-0.32-0.53-1.15-1.24-2.8-2.34c-1.79-1.19-2.74-1.67-3.41-1.66
			c-0.75-0.02-1.43,0.38-1.92,1.11c-0.53,0.8-0.6,1.67-0.21,2.37c0.32,0.53,1.17,1.25,2.76,2.31c1.85,1.23,2.79,1.69,3.46,1.69
			c0.75,0.02,1.43-0.38,1.92-1.11C170.71,573.67,170.78,572.8,170.39,572.09z"/>
	</g>
</g>
<g>
	<path class="st2" d="M323.39,267.85c-1.7,1.09-2.9,1.29-4.51,0.75c-1.05-0.35-1.77-0.93-2.03-1.67c-0.29-0.75-0.22-1.47,0.28-2.98
		l1.99-6.02l-1.72-0.57l0.21-0.64l0.79,0.26c2.07,0.69,2.89,0.87,4.09,1.04l-2.49,7.53c-0.35,1.05-0.39,1.26-0.25,1.62
		c0.11,0.35,0.39,0.61,0.78,0.74c0.77,0.25,1.84,0.01,2.55-0.58c0.52-0.45,0.77-0.85,1.18-2.11l1.67-5.05l-1.72-0.57l0.21-0.64
		l0.79,0.26c2.07,0.69,2.89,0.87,4.09,1.04l-3.22,9.71l1.69,0.56l-0.21,0.64l-4.76-1.58L323.39,267.85z"/>
</g>
<g>
	<path class="st1" d="M289,405.98l5.49,2.64c0.39,0.2,0.53,0.23,0.67,0.24c0.31,0.02,0.44-0.2,0.48-0.89l0.06-1.06l0.71,0.04
		l-0.28,4.85l-0.71-0.04l0.04-0.66c0.03-1.09-0.02-1.2-1.27-1.79l-9.28-4.44l0.04-0.77l11.18-4.48l0.07-1.28l0.71,0.04l-0.39,6.63
		l-0.71-0.04l0.1-1.77L289,405.98z"/>
</g>
<g>
	<path class="st2" d="M162.06,45.7l5.57-2.48c0.4-0.17,0.52-0.25,0.62-0.36c0.22-0.23,0.13-0.47-0.37-0.94l-0.77-0.73l0.49-0.52
		l3.52,3.36l-0.49,0.52l-0.48-0.45c-0.81-0.73-0.93-0.77-2.19-0.19l-9.39,4.21l-0.56-0.53l3.82-11.42l-0.93-0.89l0.49-0.52l4.8,4.58
		l-0.49,0.52l-1.28-1.23L162.06,45.7z"/>
</g>
<g>
	<path class="st2" d="M161.96,120.2c-1.88,0.73-3.1,0.68-4.57-0.17c-0.96-0.55-1.55-1.26-1.66-2.04c-0.14-0.79,0.07-1.48,0.87-2.86
		l3.16-5.5l-1.57-0.9l0.34-0.59l0.73,0.42c1.89,1.09,2.66,1.43,3.8,1.84l-3.95,6.88c-0.55,0.96-0.64,1.16-0.57,1.54
		c0.04,0.37,0.26,0.68,0.61,0.88c0.7,0.4,1.8,0.38,2.61-0.05c0.6-0.34,0.92-0.68,1.58-1.83l2.65-4.61l-1.57-0.9l0.34-0.59l0.73,0.42
		c1.89,1.09,2.66,1.43,3.8,1.84l-5.09,8.87l1.54,0.89l-0.34,0.59l-4.35-2.5L161.96,120.2z"/>
</g>
<g>
	<path class="st2" d="M27.66,286.34c1.97-0.43,3.17-0.19,4.49,0.87c0.86,0.69,1.33,1.49,1.32,2.28c0.01,0.8-0.3,1.45-1.3,2.69
		l-3.97,4.94l1.41,1.13l-0.42,0.53l-0.65-0.52c-1.7-1.37-2.41-1.83-3.47-2.41l4.97-6.18c0.69-0.86,0.81-1.05,0.8-1.43
		c0.02-0.37-0.15-0.71-0.47-0.97c-0.63-0.51-1.72-0.66-2.59-0.35c-0.65,0.24-1.02,0.53-1.85,1.56l-3.33,4.14l1.41,1.13l-0.42,0.53
		l-0.65-0.52c-1.7-1.37-2.41-1.83-3.47-2.41l6.41-7.97l-1.39-1.12l0.42-0.53l3.91,3.14L27.66,286.34z"/>
</g>
<g>
	<path class="st2" d="M146.8,505.53c1.95-0.49,3.16-0.3,4.52,0.72c0.89,0.66,1.38,1.44,1.4,2.23c0.04,0.8-0.25,1.46-1.21,2.74
		l-3.8,5.07l1.45,1.08l-0.41,0.54l-0.67-0.5c-1.75-1.31-2.47-1.75-3.54-2.29l4.76-6.35c0.66-0.88,0.77-1.07,0.76-1.46
		c0.01-0.37-0.18-0.71-0.5-0.95c-0.65-0.49-1.74-0.6-2.6-0.26c-0.64,0.27-1,0.57-1.79,1.62l-3.19,4.25l1.45,1.08L143,513.6
		l-0.67-0.5c-1.75-1.31-2.47-1.75-3.54-2.29l6.13-8.18l-1.42-1.07l0.41-0.54l4.01,3.01L146.8,505.53z"/>
</g>
<g>
	<path class="st2" d="M42.78,385.37l-5.59,2.42c-0.4,0.17-0.52,0.25-0.62,0.35c-0.22,0.22-0.14,0.47,0.36,0.95l0.76,0.74l-0.5,0.51
		l-3.48-3.39l0.5-0.51l0.47,0.46c0.8,0.74,0.92,0.78,2.19,0.21l9.44-4.11l0.55,0.54l-3.94,11.38l0.92,0.9l-0.5,0.51l-4.75-4.63
		l0.5-0.51l1.27,1.24L42.78,385.37z"/>
</g>
<g>
	<path class="st2" d="M140.88,598.81l-5.97,1.24c-0.43,0.08-0.56,0.14-0.68,0.22c-0.26,0.18-0.23,0.43,0.16,1l0.59,0.88l-0.59,0.4
		l-2.72-4.03l0.59-0.4l0.37,0.54c0.63,0.88,0.74,0.95,2.1,0.65l10.07-2.11l0.43,0.64l-6.16,10.35l0.72,1.07l-0.59,0.4l-3.72-5.5
		l0.59-0.4l0.99,1.47L140.88,598.81z"/>
</g>
<g>
	<path class="st2" d="M298.49,345.37c-0.56,1.94-1.34,2.88-2.9,3.53c-1.02,0.43-1.94,0.47-2.63,0.08c-0.71-0.37-1.13-0.96-1.75-2.42
		l-2.46-5.84l-1.67,0.7l-0.26-0.62l0.77-0.32c2.01-0.85,2.75-1.25,3.76-1.9l3.08,7.31c0.43,1.02,0.54,1.21,0.88,1.39
		c0.31,0.19,0.7,0.2,1.07,0.05c0.75-0.31,1.4-1.2,1.54-2.11c0.09-0.68,0.02-1.15-0.5-2.37l-2.06-4.9l-1.67,0.7l-0.26-0.62l0.77-0.32
		c2.01-0.85,2.75-1.25,3.76-1.9l3.96,9.42l1.64-0.69l0.26,0.62l-4.63,1.95L298.49,345.37z"/>
</g>
<g>
	<g>
		<path class="st2" d="M165.96,185.8c1.4-2.68,4.82-3.58,7.76-2.05c2.96,1.54,4.16,4.86,2.73,7.61c-1.41,2.7-4.82,3.64-7.76,2.11
			C165.68,191.89,164.51,188.59,165.96,185.8z M171.38,192.77c0.49-0.37,1.11-1.27,2.03-3.04c0.99-1.9,1.36-2.9,1.29-3.57
			c-0.06-0.75-0.53-1.38-1.31-1.79c-0.85-0.44-1.72-0.42-2.38,0.04c-0.49,0.37-1.12,1.3-2.01,2.99c-1.03,1.97-1.39,2.95-1.32,3.62
			c0.06,0.75,0.53,1.38,1.31,1.79C169.85,193.25,170.72,193.23,171.38,192.77z"/>
	</g>
</g>
<g>
	<g>
		<path class="st2" d="M132.14,428.75c-2.59,1.54-5.99,0.51-7.68-2.33c-1.71-2.87-0.99-6.32,1.68-7.9c2.62-1.56,6.02-0.56,7.71,2.29
			C135.58,423.71,134.84,427.13,132.14,428.75z M131.2,419.96c-0.61,0.06-1.61,0.5-3.32,1.51c-1.84,1.1-2.69,1.75-2.98,2.36
			c-0.34,0.67-0.27,1.46,0.17,2.21c0.49,0.82,1.25,1.26,2.05,1.22c0.61-0.06,1.64-0.51,3.28-1.49c1.91-1.14,2.73-1.78,3.02-2.38
			c0.34-0.67,0.27-1.46-0.17-2.21C132.76,420.36,132,419.92,131.2,419.96z"/>
	</g>
</g>
<g>
	<g>
		<path class="st2" d="M225.05,180.2c0.08-0.68,0.3-1.09,0.73-1.45c0.81-0.68,1.67-0.63,2.47,0.13c-0.21-1.23,0.18-2.35,1.08-3.09
			c1.05-0.87,2.29-0.83,3.05,0.08c0.68,0.81,0.69,1.9,0.04,3.12c-0.42,0.74-1,1.43-2.1,2.37l0.95,1.15
			c0.79,0.95,0.96,1.08,1.32,1.15c0.33,0.06,0.81-0.11,1.17-0.41c0.6-0.5,0.96-1.42,0.68-1.75c-0.06-0.07-0.1-0.09-0.24-0.11
			c-0.35-0.05-0.51-0.14-0.66-0.32c-0.35-0.42-0.3-0.96,0.09-1.28c0.42-0.35,0.96-0.3,1.32,0.14c0.73,0.88,0.15,2.68-1.22,3.83
			c-0.81,0.68-1.78,1.03-2.54,0.94c-0.68-0.08-0.77-0.15-1.99-1.61l-1.52-1.83c-1.31-1.58-1.31-1.58-1.5-1.67
			c-0.17-0.11-0.28-0.1-0.45,0.04c-0.17,0.14-0.18,0.18-0.28,0.68L225.05,180.2z M230.08,181.07c0.85-0.77,1.18-1.21,1.38-1.79
			c0.25-0.71,0.15-1.34-0.3-1.88c-0.58-0.7-1.29-0.81-1.92-0.28c-0.5,0.41-0.69,1.03-0.56,1.73c0.08,0.47,0.41,1.04,1.13,1.9
			L230.08,181.07z"/>
	</g>
</g>
<g>
	<g>
		<path class="st1" d="M314.15,297.72c0.68-0.12,1.13-0.03,1.6,0.28c0.88,0.59,1.08,1.42,0.58,2.41c1.12-0.55,2.3-0.5,3.27,0.15
			c1.13,0.75,1.45,1.95,0.8,2.94c-0.59,0.88-1.63,1.2-2.98,0.93c-0.83-0.19-1.66-0.55-2.87-1.34l-0.82,1.24
			c-0.68,1.03-0.76,1.23-0.72,1.6c0.04,0.33,0.34,0.74,0.73,1.01c0.65,0.43,1.63,0.51,1.87,0.15c0.05-0.07,0.05-0.12,0.04-0.26
			c-0.05-0.35-0.01-0.53,0.12-0.73c0.3-0.45,0.84-0.56,1.25-0.28c0.45,0.3,0.56,0.84,0.25,1.31c-0.63,0.95-2.53,0.92-4.02-0.08
			c-0.88-0.59-1.5-1.41-1.62-2.16c-0.12-0.68-0.08-0.78,0.97-2.36l1.31-1.98c1.14-1.71,1.14-1.71,1.17-1.92
			c0.05-0.2,0.02-0.3-0.16-0.42c-0.18-0.12-0.23-0.12-0.73-0.07L314.15,297.72z M314.75,302.78c0.98,0.6,1.5,0.79,2.11,0.81
			c0.76,0.03,1.32-0.24,1.72-0.83c0.5-0.75,0.4-1.47-0.28-1.92c-0.54-0.36-1.18-0.37-1.82-0.04c-0.43,0.21-0.87,0.69-1.5,1.63
			L314.75,302.78z"/>
	</g>
</g>
<g>
	<g>
		<path class="st1" d="M159.98,513.09c0.67-0.15,1.13-0.08,1.61,0.21c0.91,0.55,1.14,1.37,0.69,2.38c1.09-0.6,2.28-0.6,3.28,0
			c1.17,0.7,1.54,1.88,0.93,2.9c-0.55,0.91-1.57,1.27-2.93,1.06c-0.84-0.15-1.68-0.48-2.93-1.21l-0.77,1.28
			c-0.63,1.06-0.71,1.26-0.65,1.63c0.05,0.33,0.37,0.73,0.78,0.97c0.67,0.4,1.65,0.44,1.88,0.07c0.04-0.07,0.05-0.12,0.03-0.26
			c-0.07-0.35-0.04-0.53,0.09-0.73c0.28-0.46,0.81-0.6,1.24-0.34c0.46,0.28,0.6,0.81,0.31,1.29c-0.59,0.98-2.48,1.03-4.02,0.1
			c-0.91-0.55-1.56-1.34-1.72-2.09c-0.15-0.67-0.11-0.77,0.87-2.4l1.23-2.04c1.06-1.76,1.06-1.76,1.08-1.97
			c0.04-0.2,0-0.3-0.18-0.41c-0.19-0.11-0.23-0.11-0.73-0.04L159.98,513.09z M160.81,518.12c1,0.55,1.53,0.72,2.14,0.71
			c0.76,0,1.31-0.29,1.68-0.91c0.47-0.78,0.34-1.48-0.37-1.91c-0.55-0.33-1.2-0.32-1.82,0.04c-0.42,0.23-0.84,0.73-1.42,1.69
			L160.81,518.12z"/>
	</g>
</g>
<g>
	<g>
		<path class="st2" d="M68.57,391.93c-0.36,0.59-0.74,0.86-1.28,1c-1.03,0.26-1.78-0.15-2.18-1.18c-0.34,1.2-1.17,2.04-2.3,2.33
			c-1.32,0.34-2.42-0.23-2.72-1.38c-0.26-1.03,0.2-2.01,1.31-2.83c0.7-0.49,1.52-0.86,2.92-1.24l-0.37-1.44
			c-0.31-1.19-0.4-1.39-0.7-1.61c-0.27-0.2-0.78-0.25-1.24-0.13c-0.75,0.19-1.47,0.87-1.37,1.29c0.02,0.08,0.05,0.12,0.16,0.2
			c0.29,0.19,0.4,0.34,0.46,0.57c0.13,0.52-0.15,1-0.63,1.12c-0.52,0.13-1-0.15-1.14-0.69c-0.28-1.11,1.01-2.49,2.75-2.93
			c1.03-0.26,2.05-0.17,2.69,0.25c0.58,0.36,0.63,0.46,1.1,2.31l0.59,2.3c0.51,1.99,0.51,1.99,0.64,2.16
			c0.11,0.17,0.21,0.21,0.42,0.16s0.25-0.09,0.54-0.5L68.57,391.93z M64.41,388.98c-1.1,0.32-1.59,0.58-2.01,1.03
			c-0.53,0.54-0.71,1.14-0.53,1.83c0.22,0.88,0.82,1.28,1.61,1.08c0.63-0.16,1.07-0.63,1.25-1.32c0.13-0.46,0.07-1.11-0.21-2.2
			L64.41,388.98z"/>
	</g>
</g>
<g>
	<g>
		<path class="st2" d="M62.52,233.89c-0.65-0.22-1-0.53-1.26-1.03c-0.48-0.94-0.25-1.77,0.67-2.38c-1.25-0.06-2.25-0.69-2.78-1.73
			c-0.62-1.21-0.32-2.41,0.74-2.95c0.94-0.48,2.01-0.25,3.05,0.64c0.63,0.57,1.17,1.29,1.85,2.57l1.33-0.68
			c1.1-0.56,1.27-0.7,1.41-1.04c0.13-0.31,0.07-0.81-0.15-1.24c-0.36-0.69-1.17-1.24-1.56-1.05c-0.08,0.04-0.11,0.08-0.16,0.2
			c-0.12,0.33-0.25,0.47-0.46,0.58c-0.48,0.25-1,0.08-1.23-0.36c-0.25-0.48-0.08-1,0.42-1.26c1.02-0.52,2.65,0.44,3.47,2.03
			c0.48,0.94,0.62,1.96,0.36,2.68c-0.23,0.65-0.31,0.72-2,1.59l-2.11,1.09c-1.83,0.94-1.83,0.94-1.96,1.1
			c-0.14,0.15-0.16,0.25-0.06,0.45c0.1,0.19,0.14,0.22,0.6,0.42L62.52,233.89z M64.47,229.17c-0.56-1-0.92-1.42-1.45-1.73
			c-0.64-0.4-1.27-0.44-1.91-0.11c-0.81,0.41-1.07,1.08-0.69,1.81c0.3,0.58,0.85,0.9,1.56,0.92c0.47,0.02,1.1-0.18,2.1-0.69
			L64.47,229.17z"/>
	</g>
</g>
<g>
	<g>
		<path class="st1" d="M145.13,128.13c-0.65-0.22-1-0.53-1.26-1.03c-0.48-0.94-0.25-1.77,0.67-2.38c-1.25-0.06-2.25-0.69-2.78-1.73
			c-0.62-1.21-0.32-2.41,0.74-2.95c0.94-0.48,2.01-0.25,3.05,0.64c0.63,0.57,1.17,1.29,1.85,2.57l1.33-0.68
			c1.1-0.56,1.27-0.7,1.41-1.04c0.13-0.31,0.07-0.81-0.15-1.24c-0.36-0.69-1.17-1.24-1.56-1.05c-0.08,0.04-0.11,0.08-0.16,0.2
			c-0.12,0.33-0.25,0.47-0.46,0.58c-0.48,0.25-1,0.08-1.23-0.36c-0.25-0.48-0.08-1,0.42-1.26c1.02-0.52,2.65,0.44,3.47,2.03
			c0.48,0.94,0.62,1.96,0.36,2.68c-0.23,0.65-0.31,0.72-2,1.59l-2.11,1.09c-1.83,0.94-1.83,0.94-1.96,1.1
			c-0.14,0.15-0.16,0.25-0.06,0.45s0.14,0.22,0.6,0.42L145.13,128.13z M147.07,123.41c-0.56-1-0.92-1.42-1.45-1.73
			c-0.64-0.4-1.27-0.44-1.91-0.11c-0.81,0.41-1.07,1.08-0.69,1.81c0.3,0.58,0.85,0.9,1.56,0.92c0.47,0.02,1.1-0.18,2.1-0.69
			L147.07,123.41z"/>
	</g>
</g>
<g>
	<g>
		<path class="st3" d="M279.46,207.36l0.44-1.24l0.37,0.13l-1.04,2.91l-1.36-0.48c0.85,0.84,1.09,1.81,0.74,2.79
			c-0.6,1.69-2.74,2.48-4.78,1.75c-2.13-0.76-3.46-2.86-2.86-4.55c0.35-0.98,1.11-1.49,2.41-1.59l-6.03-2.14l-0.44,1.23l-0.37-0.13
			l1.47-4.14l0.37,0.13l-0.44,1.24L279.46,207.36z M278.17,209.88c-0.31-0.78-1.18-1.44-2.52-1.92c-2.14-0.76-3.76-0.48-4.2,0.75
			c-0.18,0.5-0.04,0.93,0.45,1.33c0.37,0.32,1.21,0.7,2.68,1.22c1.78,0.63,2.38,0.76,2.82,0.67c0.43-0.1,0.72-0.37,0.87-0.8
			C278.41,210.73,278.39,210.37,278.17,209.88z"/>
	</g>
</g>
<g>
	<g>
		<path class="st3" d="M303.51,332.82l-1.22,0.5l-0.15-0.37l2.87-1.17l0.54,1.33c0.07-1.2,0.63-2.02,1.59-2.41
			c1.66-0.68,3.67,0.4,4.49,2.41c0.85,2.1,0.16,4.48-1.5,5.16c-0.97,0.39-1.85,0.16-2.79-0.74l2.41,5.93l1.2-0.49l0.15,0.37
			l-4.07,1.66l-0.15-0.37l1.22-0.5L303.51,332.82z M306.24,332.11c-0.38,0.75-0.29,1.84,0.24,3.16c0.85,2.1,2.14,3.13,3.35,2.64
			c0.49-0.2,0.72-0.59,0.7-1.22c-0.01-0.49-0.28-1.37-0.87-2.82c-0.71-1.75-1.02-2.29-1.38-2.55c-0.36-0.26-0.76-0.29-1.18-0.12
			C306.73,331.36,306.47,331.62,306.24,332.11z"/>
	</g>
</g>
<g>
	<g>
		<path class="st3" d="M45.37,267.02l-1.22,0.5l-0.15-0.37l2.87-1.17l0.54,1.33c0.07-1.2,0.63-2.02,1.59-2.41
			c1.66-0.68,3.67,0.4,4.49,2.41c0.85,2.1,0.16,4.48-1.5,5.16c-0.97,0.39-1.85,0.16-2.79-0.74l2.41,5.93l1.2-0.49l0.15,0.37
			l-4.07,1.66l-0.15-0.37l1.22-0.5L45.37,267.02z M48.1,266.31c-0.38,0.75-0.29,1.84,0.24,3.16c0.85,2.1,2.14,3.13,3.35,2.64
			c0.49-0.2,0.72-0.59,0.7-1.22c-0.01-0.49-0.28-1.37-0.87-2.82c-0.71-1.75-1.02-2.29-1.38-2.55c-0.36-0.26-0.76-0.29-1.18-0.12
			C48.58,265.57,48.32,265.82,48.1,266.31z"/>
	</g>
</g>
<g>
	<g>
		<path class="st3" d="M156.62,156.37l1.32-0.09l0.03,0.39l-3.09,0.2l-0.09-1.44c-0.44,1.11-1.23,1.72-2.27,1.79
			c-1.79,0.12-3.36-1.54-3.5-3.7c-0.15-2.26,1.26-4.31,3.05-4.42c1.04-0.07,1.81,0.43,2.41,1.58l-0.42-6.39l-1.3,0.09l-0.03-0.39
			l4.38-0.29l0.03,0.39l-1.32,0.09L156.62,156.37z M153.81,156.18c0.59-0.59,0.86-1.66,0.77-3.07c-0.15-2.26-1.05-3.64-2.35-3.56
			c-0.53,0.03-0.87,0.33-1.04,0.94c-0.15,0.46-0.17,1.39-0.06,2.95c0.12,1.89,0.24,2.49,0.5,2.85c0.26,0.36,0.63,0.51,1.08,0.48
			C153.11,156.74,153.44,156.58,153.81,156.18z"/>
	</g>
</g>
<g>
	<g>
		<path class="st3" d="M153.54,89.59l1.65-0.11l0.03,0.49l-3.87,0.25l-0.12-1.8c-0.55,1.4-1.54,2.15-2.85,2.24
			c-2.24,0.15-4.21-1.92-4.38-4.63c-0.19-2.83,1.58-5.39,3.82-5.54c1.31-0.09,2.26,0.54,3.02,1.98l-0.52-8l-1.63,0.11l-0.03-0.49
			l5.49-0.36l0.03,0.49l-1.65,0.11L153.54,89.59z M150.01,89.35c0.74-0.74,1.08-2.07,0.96-3.85c-0.19-2.83-1.31-4.56-2.94-4.46
			c-0.66,0.04-1.09,0.42-1.31,1.17c-0.18,0.58-0.21,1.75-0.08,3.69c0.16,2.36,0.3,3.12,0.63,3.57c0.33,0.45,0.78,0.64,1.35,0.6
			C149.14,90.05,149.55,89.85,150.01,89.35z"/>
	</g>
</g>
<g>
	<g>
		<path class="st3" d="M320.15,293.78l0.83-0.69l0.21,0.25l-1.95,1.63l-0.76-0.91c0.25,0.95,0.02,1.74-0.64,2.29
			c-1.13,0.94-2.97,0.61-4.12-0.76c-1.19-1.43-1.25-3.47-0.12-4.41c0.66-0.55,1.41-0.59,2.37-0.12l-3.37-4.04l-0.82,0.68l-0.21-0.25
			l2.77-2.31l0.21,0.25l-0.83,0.69L320.15,293.78z M318.19,295.02c0.11-0.68-0.23-1.52-0.98-2.41c-1.19-1.43-2.46-1.91-3.28-1.23
			c-0.34,0.28-0.41,0.64-0.24,1.13c0.13,0.38,0.56,1.01,1.38,1.99c1,1.19,1.37,1.54,1.71,1.65c0.35,0.11,0.66,0.04,0.95-0.2
			C318,295.73,318.14,295.46,318.19,295.02z"/>
	</g>
</g>
<g>
	<g>
		<path class="st3" d="M303.53,255.53l-0.89,0.61l-0.18-0.27l2.1-1.44l0.67,0.98c-0.16-0.97,0.15-1.73,0.86-2.22
			c1.22-0.83,3.02-0.32,4.02,1.15c1.05,1.54,0.92,3.57-0.3,4.4c-0.71,0.48-1.46,0.45-2.37-0.11l2.97,4.34l0.88-0.6l0.18,0.27
			l-2.98,2.04l-0.18-0.27l0.89-0.61L303.53,255.53z M305.6,254.49c-0.17,0.67,0.09,1.53,0.75,2.49c1.05,1.54,2.27,2.14,3.15,1.53
			c0.36-0.25,0.47-0.6,0.35-1.1c-0.09-0.39-0.47-1.05-1.19-2.11c-0.88-1.28-1.22-1.66-1.55-1.8c-0.33-0.14-0.66-0.1-0.96,0.11
			C305.86,253.8,305.69,254.05,305.6,254.49z"/>
	</g>
</g>
<g>
	<g>
		<path class="st3" d="M48.78,372.6l-0.08-0.57l4.49-0.6l1.72,13c0.33,2.46,0.3,3.37-0.1,4.3c-0.54,1.21-1.65,2.05-2.88,2.22
			c-1.49,0.2-2.72-0.51-2.87-1.66c-0.11-0.8,0.28-1.38,1-1.47c0.69-0.09,1.21,0.33,1.3,1.05c0.02,0.17,0.03,0.2,0.01,0.7
			c-0.02,0.06-0.01,0.15,0,0.23c0.06,0.43,0.25,0.58,0.62,0.53c0.46-0.06,0.76-0.45,0.85-1.05c0.04-0.35,0.01-0.61-0.19-2.13
			l-1.96-14.8L48.78,372.6z M52.66,365.56c0.12,0.92-0.5,1.73-1.39,1.84c-0.89,0.12-1.67-0.51-1.8-1.45
			c-0.12-0.92,0.45-1.69,1.36-1.81C51.73,364.02,52.54,364.64,52.66,365.56z"/>
	</g>
</g>
<g>
	<g>
		<path class="st3" d="M40.85,286.12l-0.08-0.57l4.49-0.6l1.72,13c0.33,2.46,0.3,3.37-0.1,4.3c-0.54,1.21-1.65,2.05-2.88,2.22
			c-1.49,0.2-2.72-0.51-2.87-1.66c-0.11-0.8,0.28-1.38,1-1.47c0.69-0.09,1.21,0.33,1.3,1.05c0.02,0.17,0.03,0.2,0.01,0.7
			c-0.02,0.06-0.01,0.15,0,0.23c0.06,0.43,0.25,0.58,0.62,0.53c0.46-0.06,0.76-0.45,0.85-1.05c0.04-0.35,0.01-0.61-0.19-2.13
			l-1.96-14.8L40.85,286.12z M44.72,279.08c0.12,0.92-0.5,1.73-1.39,1.84c-0.89,0.12-1.67-0.51-1.8-1.45
			c-0.12-0.92,0.45-1.69,1.36-1.81C43.79,277.55,44.6,278.17,44.72,279.08z"/>
	</g>
</g>
<g>
	<g>
		<path class="st3" d="M172.44,454.98l0.28,0.41l-3.24,2.22l-6.41-9.37c-1.21-1.77-1.55-2.48-1.6-3.36
			c-0.05-1.14,0.47-2.23,1.36-2.84c1.07-0.73,2.3-0.67,2.87,0.16c0.4,0.58,0.32,1.18-0.2,1.53c-0.49,0.34-1.06,0.21-1.42-0.3
			c-0.09-0.12-0.1-0.14-0.28-0.54c-0.01-0.06-0.05-0.12-0.09-0.18c-0.21-0.31-0.42-0.35-0.69-0.17c-0.33,0.23-0.41,0.64-0.25,1.14
			c0.11,0.29,0.23,0.48,0.98,1.57l7.3,10.67L172.44,454.98z M172.19,461.93c-0.45-0.66-0.29-1.53,0.35-1.97
			c0.64-0.44,1.49-0.26,1.95,0.42c0.45,0.66,0.32,1.48-0.34,1.93C173.52,462.75,172.65,462.59,172.19,461.93z"/>
	</g>
</g>
<g>
	<g>
		<path class="st3" d="M148.97,549.97l0.2-0.26l2.07,1.58l-4.56,5.98c-0.86,1.13-1.24,1.49-1.78,1.71c-0.71,0.27-1.5,0.17-2.07-0.26
			c-0.68-0.52-0.9-1.31-0.5-1.83c0.28-0.37,0.67-0.45,1-0.19c0.32,0.24,0.36,0.62,0.11,0.95c-0.06,0.08-0.07,0.09-0.28,0.29
			c-0.03,0.02-0.06,0.06-0.09,0.09c-0.15,0.2-0.13,0.34,0.04,0.47c0.21,0.16,0.49,0.12,0.77-0.08c0.16-0.13,0.25-0.25,0.78-0.94
			l5.19-6.81L148.97,549.97z M153.39,548.67c-0.32,0.42-0.9,0.5-1.31,0.19c-0.41-0.31-0.47-0.88-0.14-1.32
			c0.32-0.42,0.87-0.51,1.29-0.19C153.64,547.67,153.71,548.25,153.39,548.67z"/>
	</g>
</g>
<g>
	<path class="st0" d="M120.88,217.03l-1.76,0.06l-0.02-0.66l1.76-0.06l-0.03-0.87c-0.07-1.94,0.18-3.21,0.88-4.32
		c0.87-1.4,2.42-2.32,3.97-2.37c1.31-0.05,2.37,0.79,2.41,1.86c0.03,0.84-0.53,1.47-1.34,1.49c-0.73,0.03-1.33-0.48-1.35-1.14
		c-0.01-0.29,0.09-0.53,0.31-0.8c0.18-0.19,0.2-0.22,0.2-0.3c-0.01-0.24-0.33-0.41-0.7-0.4c-0.42,0.01-0.84,0.24-1.06,0.59
		c-0.25,0.35-0.31,0.8-0.28,1.88l0.15,4.26l2.39-0.08l0.02,0.66l-2.39,0.08l0.31,9.01l2.39-0.08l0.02,0.66l-7.31,0.25l-0.02-0.66
		l1.76-0.06L120.88,217.03z"/>
</g>
<g>
	<path class="st0" d="M81.56,183.71c1.48,0.81,2.27,0.29,3.96-2.55l2.47-4.26c1.54-2.66,2.67-3.69,4.34-3.88
		c0.88-0.07,1.56,0.15,2.87,0.87c0.1,0.06,1.05,0.56,2.1,1.13l-0.38,0.66c-2.54-1.29-4.06-0.66-5.87,2.55l-2.37,4.09
		c-1.46,2.22-1.61,2.4-2.64,2.87c-0.83,0.28-1.62,0.26-2.49-0.07l-0.08,0.13c1.67,1.41,1.72,3.17,0.17,5.7l-2.99,5.15
		c-1.25,2.61-1.31,2.79-1.24,3.82c0.14,1.14,0.68,1.81,1.96,2.6l-0.39,0.67c-3.42-2.07-3.93-2.5-4.47-3.93
		c-0.37-1.59-0.18-2.15,1.83-5.69l2.41-4.16c1.98-3.34,2.06-4.09,0.49-5.13L81.56,183.71z"/>
</g>
<g>
	<path class="st0" d="M128.21,175.34c-1.21,1.83-1.88,2.48-3,2.96c-1.4,0.54-3.08,0.22-4.82-0.94c-4.71-3.12-5.56-8.94-2.05-14.24
		c2.81-4.24,7.36-6.12,10.16-4.27c1.7,1.13,2.24,3.26,1.52,5.83c1.9-1.67,3.97-1.95,5.85-0.71c1.91,1.26,2.88,3.68,2.83,7.25
		c2.65-0.87,4.67-0.69,6.58,0.58c3.35,2.22,4.03,6.82,1.5,10.64c-1.32,2-2.98,3.22-4.94,3.69c0.49,2.03,0.39,3.19-0.29,4.21
		c-0.76,1.14-2.05,1.44-3.2,0.69c-0.93-0.62-1.17-1.75-0.6-2.6c0.54-0.81,1.27-0.99,2.23-0.6c0.53,0.22,0.82,0.24,0.99-0.02
		c0.2-0.29,0.18-0.55-0.03-1.43c-1.78,0.1-3.29-0.29-4.65-1.19c-3.48-2.31-4-6.68-1.3-10.76c0.82-1.23,1.49-1.88,2.76-2.69
		c0.05-2.66-0.5-4.42-1.6-5.15c-1.19-0.79-2.05-0.32-3.48,1.85c-0.28,0.42-0.28,0.42-2.15,3.34c-0.07,0.2-0.66,1.09-1.48,2.32
		L128.21,175.34z M127.22,161.72c-2.63-1.74-5.84-0.87-7.89,2.23c-2.81,4.24-2.39,9.23,1.01,11.48c1.31,0.87,2.2,0.55,3.36-1.2
		c0.11-0.17,0.65-0.97,1.31-2.06c0.52-0.88,2.53-4.01,2.87-4.52c0.7-1.06,0.96-1.44,1.7-2.29
		C129.18,163.64,128.49,162.57,127.22,161.72z M146.22,178.77c-0.49-0.75-1.83-1.76-4.67-3.64c-3.1-2.05-4.38-2.05-5.74-0.01
		c-0.7,1.06-0.87,2.05-0.43,2.95c0.38,0.8,1.32,1.61,4.08,3.43c2.55,1.69,3.37,2.11,4.13,2.06c0.85,0.01,1.55-0.5,2.34-1.69
		C146.75,180.65,146.87,179.63,146.22,178.77z"/>
</g>
<g>
	<path class="st0" d="M91.78,204.83c1.17-0.84,1.74-1.08,2.54-1.12c0.98,0,1.94,0.59,2.74,1.7c2.16,3.02,1.33,6.79-2.08,9.23
		c-2.72,1.95-5.95,2.04-7.24,0.24c-0.78-1.09-0.61-2.53,0.43-3.94c-1.56,0.58-2.9,0.26-3.76-0.93c-0.88-1.22-0.91-2.93-0.04-5.12
		c-1.83-0.09-3.03-0.67-3.91-1.9c-1.54-2.15-0.88-5.13,1.57-6.89c1.28-0.92,2.59-1.28,3.9-1.11c0.18-1.36,0.51-2.05,1.16-2.52
		c0.73-0.53,1.6-0.41,2.13,0.33c0.43,0.6,0.31,1.35-0.24,1.74c-0.52,0.37-1.01,0.31-1.51-0.15c-0.27-0.26-0.45-0.34-0.61-0.22
		c-0.19,0.14-0.24,0.3-0.31,0.88c1.12,0.35,1.95,0.95,2.58,1.82c1.6,2.23,0.9,5.04-1.72,6.92c-0.79,0.57-1.36,0.81-2.33,1.01
		c-0.65,1.62-0.73,2.83-0.22,3.54c0.55,0.76,1.18,0.67,2.57-0.32c0.27-0.19,0.27-0.19,2.1-1.55c0.09-0.1,0.66-0.51,1.45-1.08
		L91.78,204.83z M89.21,213.43c1.21,1.69,3.38,1.9,5.37,0.48c2.72-1.95,3.63-5.11,2.07-7.29c-0.6-0.84-1.23-0.85-2.34-0.05
		c-0.11,0.08-0.62,0.45-1.29,0.96c-0.53,0.42-2.49,1.87-2.82,2.1c-0.68,0.49-0.93,0.66-1.58,1.01
		C88.45,211.79,88.62,212.61,89.21,213.43z M81.52,198.5c0.12,0.57,0.71,1.51,2.02,3.33c1.42,1.99,2.21,2.29,3.52,1.35
		c0.68-0.49,1.01-1.06,0.95-1.71c-0.05-0.58-0.43-1.3-1.7-3.06c-1.17-1.63-1.58-2.08-2.06-2.23c-0.52-0.2-1.07-0.06-1.83,0.49
		C81.64,197.23,81.32,197.82,81.52,198.5z"/>
</g>
<g>
	<path class="st0" d="M104.46,167.52h-2.27v-0.68h5.32v2.47c0.88-1.86,2.31-2.81,4.1-2.81c3.08,0,5.59,3.01,5.59,6.74
		c0,3.9-2.64,7.25-5.73,7.25c-1.8,0-3.05-0.95-3.97-2.98v11.02h2.24v0.68h-7.56v-0.68h2.27V167.52z M109.27,168.16
		c-1.09,0.95-1.66,2.75-1.66,5.19c0,3.9,1.39,6.37,3.63,6.37c0.91,0,1.52-0.47,1.9-1.49c0.3-0.78,0.44-2.38,0.44-5.05
		c0-3.26-0.14-4.31-0.54-4.95c-0.41-0.64-1.02-0.95-1.8-0.95C110.53,167.28,109.95,167.52,109.27,168.16z"/>
</g>
<g>
	<path class="st0" d="M103.6,204.67l-2.79,0.51l-0.15-0.83l6.53-1.2l0.56,3.03c0.66-2.49,2.19-3.97,4.4-4.37
		c3.78-0.7,7.54,2.44,8.38,7.01c0.88,4.78-1.61,9.49-5.39,10.19c-2.2,0.4-3.96-0.47-5.54-2.76l2.48,13.51l2.74-0.5l0.15,0.83
		l-9.27,1.7l-0.15-0.83l2.79-0.51L103.6,204.67z M109.65,204.37c-1.12,1.41-1.42,3.74-0.87,6.74c0.88,4.78,3.14,7.5,5.89,7
		c1.12-0.21,1.76-0.92,1.99-2.26c0.2-1.03,0-3.01-0.6-6.3c-0.73-3.99-1.14-5.25-1.78-5.95c-0.64-0.7-1.46-0.93-2.42-0.76
		C110.99,203.01,110.34,203.43,109.65,204.37z"/>
</g>
<g>
	<path class="st0" d="M132.54,227.65l1.49,0.37l-0.11,0.45l-3.49-0.87l0.4-1.62c-0.88,1.08-1.97,1.47-3.15,1.18
		c-2.02-0.5-3.18-2.89-2.57-5.34c0.63-2.56,2.92-4.33,4.94-3.83c1.18,0.29,1.85,1.12,2.12,2.6l1.79-7.23l-1.47-0.36l0.11-0.45
		l4.96,1.23l-0.11,0.45l-1.49-0.37L132.54,227.65z M129.49,226.45c0.87-0.45,1.54-1.53,1.94-3.13c0.63-2.56,0.12-4.41-1.35-4.77
		c-0.6-0.15-1.08,0.06-1.49,0.67c-0.33,0.46-0.68,1.49-1.11,3.24c-0.53,2.14-0.61,2.85-0.45,3.34c0.16,0.49,0.51,0.79,1.02,0.91
		C128.52,226.82,128.94,226.76,129.49,226.45z"/>
</g>
<g>
	<path class="st0" d="M130.7,197.14c-1.02,0.99-1.89,1.37-3.1,1.37c-2.53,0-4.33-2.18-4.33-5.21c0-3.08,1.94-5.35,4.54-5.35
		c1.26,0,2.06,0.43,2.89,1.51v-6.34h-1.42v-0.71h1.3c2.39,0,3.26-0.05,4.78-0.31v15.38h1.42v0.71h-6.08V197.14z M130.7,191.66
		c0-1.23-0.57-2.18-1.32-2.18c-0.8,0-1.07,0.8-1.07,3.34c0,2.2,0.07,3.17,0.24,3.71c0.12,0.38,0.4,0.64,0.73,0.64
		c0.85,0,1.42-1.04,1.42-2.56V191.66z"/>
</g>
<g>
	<path class="st0" d="M110.75,230.02c3.76-2.43,7.89-3.76,12.36-4c4.65-0.25,8.78,0.62,12.69,2.66l-0.45,0.28
		c-1.86-0.54-3.02-0.74-5.33-0.95c-2.5-0.22-4.79-0.26-7.13-0.14c-4.8,0.26-8.18,0.96-11.64,2.37L110.75,230.02z"/>
</g>
<g>
	<path d="M137.28,198.54c7.46-0.25,14.51,1.39,21.12,4.9c6.87,3.64,12.04,8.42,15.86,14.71l-0.88,0.01
		c-2.19-2.36-3.69-3.66-6.8-5.93c-3.39-2.47-6.63-4.49-10.08-6.32c-7.08-3.75-12.52-5.66-18.69-6.6L137.28,198.54z"/>
</g>
<g>
	<path d="M174.26,218.13c-7.42,0.81-14.57-0.3-21.43-3.29c-7.12-3.11-12.64-7.49-16.93-13.47l0.88-0.08
		c2.36,2.19,3.95,3.37,7.23,5.4c3.57,2.21,6.95,3.98,10.53,5.55c7.34,3.21,12.91,4.7,19.13,5.18L174.26,218.13z"/>
</g>
<g>
	<path d="M163.22,210.87c-4.84,0.53-9.5-0.19-13.97-2.15c-4.64-2.03-8.24-4.89-11.04-8.78l0.57-0.05c1.54,1.43,2.58,2.2,4.71,3.52
		c2.32,1.44,4.53,2.6,6.87,3.62c4.79,2.09,8.42,3.06,12.47,3.38L163.22,210.87z"/>
</g>
<g>
	<path d="M207.96,440.12c-7.42-0.79-14.17-3.4-20.23-7.79c-6.29-4.56-10.74-10.02-13.66-16.78l0.87,0.11
		c1.84,2.65,3.14,4.14,5.91,6.82c3.01,2.92,5.94,5.37,9.1,7.67c6.49,4.7,11.61,7.35,17.58,9.14L207.96,440.12z"/>
</g>
<g>
	<path d="M174.07,415.56c7.46,0.23,14.39,2.33,20.76,6.25c6.62,4.08,11.47,9.18,14.88,15.7l-0.88-0.05
		c-2.03-2.5-3.44-3.89-6.41-6.36c-3.22-2.68-6.33-4.91-9.65-6.96c-6.82-4.2-12.13-6.45-18.22-7.79L174.07,415.56z"/>
</g>
<g>
	<path d="M184,424.3c4.86,0.15,9.38,1.52,13.54,4.07c4.32,2.66,7.48,5.99,9.7,10.24l-0.57-0.03c-1.33-1.63-2.24-2.54-4.18-4.14
		c-2.1-1.75-4.12-3.2-6.3-4.54c-4.45-2.74-7.91-4.21-11.88-5.08L184,424.3z"/>
</g>
<g>
	<path d="M100.33,423.2c3.41,6.64,4.93,13.71,4.59,21.19c-0.36,7.76-2.48,14.48-6.53,20.62L98,464.22c1.2-2.99,1.74-4.9,2.46-8.68
		c0.79-4.12,1.23-7.91,1.42-11.82c0.37-8-0.23-13.74-2.01-19.72L100.33,423.2z"/>
</g>
<g>
	<path d="M98.39,465.01c-3.9-6.36-5.95-13.3-6.17-20.78c-0.22-7.77,1.38-14.63,4.96-21.06l0.44,0.76c-0.98,3.07-1.36,5.01-1.8,8.84
		c-0.47,4.17-0.63,7.98-0.52,11.89c0.23,8.01,1.26,13.68,3.48,19.51L98.39,465.01z"/>
</g>
<g>
	<path d="M100.25,451.92c-2.54-4.15-3.88-8.68-4.02-13.55c-0.15-5.07,0.9-9.54,3.23-13.73l0.29,0.5c-0.64,2-0.89,3.27-1.17,5.77
		c-0.31,2.72-0.41,5.21-0.34,7.75c0.15,5.22,0.82,8.92,2.27,12.72L100.25,451.92z"/>
</g>
<g>
	<path d="M94.02,408.66c-5.27-5.28-8.89-11.55-10.84-18.77c-2.03-7.5-2.06-14.55-0.08-21.63l0.61,0.64
		c-0.23,3.21-0.16,5.19,0.31,9.02c0.51,4.16,1.24,7.91,2.26,11.69c2.09,7.74,4.41,13.01,7.93,18.16L94.02,408.66z"/>
</g>
<g>
	<path d="M83.09,368.27c5.65,4.87,9.73,10.85,12.22,17.9c2.59,7.33,3.15,14.35,1.71,21.56l-0.65-0.59
		c-0.01-3.22-0.23-5.19-0.99-8.97c-0.82-4.11-1.83-7.8-3.14-11.48c-2.67-7.56-5.38-12.64-9.28-17.51L83.09,368.27z"/>
</g>
<g>
	<path d="M85.32,381.3c3.69,3.17,6.35,7.07,7.97,11.67c1.69,4.78,2.05,9.36,1.12,14.06l-0.43-0.38c-0.01-2.1-0.15-3.38-0.65-5.85
		c-0.54-2.68-1.2-5.08-2.05-7.49c-1.74-4.93-3.51-8.24-6.05-11.42L85.32,381.3z"/>
</g>
<g>
	<path d="M243.31,413.88c-3.71-10.34-3.73-19.83-0.09-28.43c3.78-8.93,10.42-15.35,20.44-19.68l0.4,1.22
		c-3.44,2.67-5.2,4.54-8.06,8.5c-3.12,4.31-5.47,8.47-7.37,12.97c-3.9,9.21-5.07,16.44-4.14,24.81L243.31,413.88z"/>
</g>
<g>
	<path d="M263.94,365.9c1.81,9.13,1.22,18.15-1.76,27c-3.1,9.19-7.94,16.52-14.91,22.51l-0.19-1.08c2.47-3.17,3.76-5.28,5.93-9.58
		c2.36-4.67,4.19-9.07,5.75-13.7c3.19-9.48,4.44-16.56,4.36-24.35L263.94,365.9z"/>
</g>
<g>
	<path d="M256.11,380.42c1.18,5.95,0.79,11.83-1.15,17.6c-2.02,5.99-5.18,10.77-9.72,14.68l-0.12-0.71
		c1.61-2.07,2.45-3.44,3.86-6.24c1.54-3.05,2.74-5.92,3.75-8.93c2.08-6.18,2.89-10.8,2.84-15.88L256.11,380.42z"/>
</g>
<g>
	<path d="M94.61,217.21c1.99,7.19,2.05,14.43,0.19,21.68c-1.93,7.53-5.37,13.67-10.58,18.87l-0.22-0.85c1.79-2.68,2.7-4.44,4.17-8
		c1.61-3.87,2.81-7.5,3.79-11.29c1.99-7.76,2.57-13.5,2.04-19.71L94.61,217.21z"/>
</g>
<g>
	<path d="M84.23,257.75c-2.52-7.02-3.13-14.24-1.82-21.6c1.36-7.65,4.32-14.04,9.13-19.61l0.28,0.84c-1.58,2.81-2.35,4.63-3.56,8.29
		c-1.31,3.98-2.24,7.69-2.93,11.54c-1.4,7.89-1.54,13.65-0.55,19.81L84.23,257.75z"/>
</g>
<g>
	<path d="M88.71,245.31c-1.65-4.58-2.04-9.28-1.19-14.09c0.89-4.99,2.82-9.15,5.95-12.79l0.18,0.54c-1.03,1.83-1.53,3.02-2.32,5.41
		c-0.85,2.6-1.46,5.01-1.91,7.52c-0.91,5.15-1.01,8.9-0.36,12.92L88.71,245.31z"/>
</g>
<g>
	<path class="st0" d="M127.29,199.28c-3.1,1.91-6.48,2.92-10.13,3.04c-3.79,0.12-7.14-0.66-10.28-2.39l0.37-0.22
		c1.5,0.47,2.45,0.66,4.32,0.87c2.03,0.23,3.9,0.3,5.8,0.24c3.91-0.12,6.67-0.63,9.52-1.73L127.29,199.28z"/>
</g>
<g>
	<path class="st0" d="M106.91,203.47c-0.85-1.02-0.96-2.1-0.29-2.79c0.68-0.71,1.79-0.63,2.82,0.16l-0.28,0.29
		c-0.63-0.26-1.21-0.15-1.67,0.33c-0.47,0.49-0.56,1.01-0.3,1.73L106.91,203.47z"/>
</g>
<g>
	<path class="st0" d="M114.18,200.84c-1.55,1.79-3.53,2.78-5.57,2.78c-2.17,0-4.09-1.36-5.33-3.78c-2.23,2.66-5.2,4.08-8.48,4.08
		c-4.08,0-6.81-2.29-6.81-5.82c0-5.2,5.39-8.42,15.29-9.23v-1.54c-0.06-5.02-0.06-5.02-0.49-5.89c-0.56-0.93-1.74-1.42-3.53-1.42
		c-2.29,0-3.84,0.62-3.84,1.61c0,0.25,0.12,0.5,0.43,1.05c0.5,0.74,0.68,1.3,0.68,2.05c0,1.73-1.55,3.16-3.47,3.16
		c-1.74,0-3.04-1.43-3.04-3.29c0-3.53,4.46-6.25,10.16-6.25c3.65,0,6.81,0.99,8.48,2.6c1.3,1.24,1.55,2.17,1.55,6.07v11.27
		c0,1.98,0.25,2.47,1.3,2.47c0.56,0,1.05-0.31,1.67-0.93L114.18,200.84z M103.28,190.56c-5.45,0.06-8.36,1.92-8.36,5.57
		c0,2.66,1.73,4.58,4.21,4.58c1.42,0,2.6-0.68,3.34-1.92c0.62-1.05,0.8-2.23,0.8-5.14V190.56z"/>
</g>
<g>
	<path class="st0" d="M134.94,210.32l1.26,0.19l-0.07,0.47l-0.59-0.09c-1.51-0.23-2.12-0.27-2.97-0.24l0.21-1.34
		c-0.85,0.76-1.86,1.06-2.92,0.9c-1.13-0.17-1.91-0.85-2.11-1.83c-0.83,0.9-1.77,1.23-2.92,1.06c-0.75-0.12-1.4-0.44-1.75-0.9
		c-0.35-0.48-0.39-0.85-0.22-1.98l0.71-4.6l-1.24-0.19l0.07-0.47l4.52,0.69l-0.07,0.47l-1.02-0.16l-0.71,4.6
		c-0.18,1.17-0.16,1.21-0.07,1.44c0.12,0.25,0.36,0.42,0.7,0.47c0.53,0.08,1.12-0.16,1.56-0.61c0.41-0.42,0.6-0.89,0.75-1.85
		l0.56-3.62l-1-0.15l0.07-0.47l4.26,0.65l-0.07,0.47l-1-0.15l-0.71,4.6c-0.16,1.02-0.14,1.17,0.01,1.47
		c0.12,0.25,0.36,0.4,0.66,0.45c0.58,0.09,1.29-0.23,1.7-0.78c0.31-0.41,0.42-0.71,0.57-1.69l0.56-3.62l-1-0.15l0.07-0.47l4.52,0.69
		l-0.07,0.47l-1.26-0.19L134.94,210.32z"/>
</g>
<g>
	<g>
		<path class="st4" d="M100.67,171.88l0.86,1.38l-0.41,0.26l-2.03-3.23l1.5-0.94c-1.47,0.17-2.58-0.33-3.27-1.42
			c-1.17-1.87-0.3-4.54,1.97-5.96c2.37-1.48,5.41-1.16,6.58,0.72c0.68,1.09,0.58,2.21-0.3,3.54l6.69-4.19l-0.85-1.36l0.41-0.26
			l2.88,4.59l-0.41,0.26l-0.86-1.38L100.67,171.88z M99.23,168.72c0.99,0.3,2.3-0.04,3.78-0.97c2.37-1.48,3.34-3.27,2.49-4.63
			c-0.35-0.56-0.87-0.75-1.63-0.58c-0.59,0.11-1.61,0.64-3.23,1.65c-1.98,1.24-2.56,1.72-2.8,2.21c-0.24,0.49-0.19,0.98,0.11,1.45
			C98.22,168.29,98.58,168.55,99.23,168.72z"/>
	</g>
</g>
<g>
	<path class="st4" d="M82.52,179.14l1.49,1.73l-0.42,0.36l-4.34-5.04l0.42-0.36l1.22,1.41l7.45-6.41l-1.22-1.41l0.42-0.36l1.22,1.41
		l1.71-1.47c1.52-1.31,2.48-1.77,3.77-1.85c1.29-0.04,2.44,0.4,3.18,1.26c0.87,1.01,0.97,2.4,0.2,3.06
		c-0.53,0.45-1.32,0.44-1.72-0.03c-0.42-0.48-0.32-1.19,0.18-1.63c0.32-0.27,0.72-0.4,1.21-0.38c-0.04-0.26-0.14-0.46-0.36-0.72
		c-0.36-0.42-0.87-0.58-1.41-0.44c-0.52,0.12-0.63,0.21-2.29,1.64l-2.85,2.45l1.65,1.92l-0.42,0.36l-1.65-1.92L82.52,179.14z"/>
</g>
<g>
	<path class="st4" d="M80.58,175.23c-2.64-0.08-4.48-1.25-5.49-3.54c-1.47-3.3-0.12-7.11,3.06-8.53c3.27-1.46,7.18,0.18,8.72,3.65
		c1.05,2.37,0.57,4.92-1.12,5.67c-0.99,0.44-2.17-0.01-2.61-1c-0.44-0.99-0.05-2.08,0.91-2.5c0.71-0.31,1.53-0.21,2.27,0.24
		c0.23-0.71,0.2-1.14-0.15-1.93c-0.94-2.12-2.5-2.2-6.56-0.39c-3.41,1.52-4.36,2.89-3.44,4.95c0.69,1.55,2.24,2.45,4.45,2.55
		L80.58,175.23z"/>
</g>
<g>
	<path class="st4" d="M85.97,159.88l-1.1,0.2l-0.07-0.41l0.51-0.09c1.32-0.24,1.84-0.38,2.54-0.64l0.21,1.17
		c0.49-0.87,1.24-1.41,2.17-1.58c0.99-0.18,1.83,0.16,2.27,0.92c0.44-0.98,1.12-1.53,2.13-1.71c0.66-0.12,1.29-0.03,1.71,0.25
		c0.43,0.3,0.57,0.6,0.74,1.59l0.72,4.02l1.09-0.19l0.07,0.41l-3.95,0.71l-0.07-0.41l0.89-0.16l-0.72-4.02
		c-0.18-1.02-0.21-1.05-0.35-1.21c-0.17-0.17-0.42-0.25-0.72-0.19c-0.46,0.08-0.89,0.45-1.12,0.95c-0.22,0.47-0.25,0.91-0.1,1.75
		l0.56,3.16l0.87-0.16l0.07,0.41l-3.72,0.66l-0.07-0.41l0.87-0.16l-0.72-4.02c-0.16-0.89-0.22-1.02-0.42-1.22
		c-0.17-0.17-0.42-0.23-0.68-0.18c-0.51,0.09-1.01,0.55-1.19,1.13c-0.14,0.43-0.15,0.71,0.01,1.56l0.56,3.16l0.87-0.16l0.07,0.41
		l-3.96,0.71l-0.07-0.41l1.1-0.2L85.97,159.88z"/>
</g>
<g>
	<path class="st4" d="M76.33,189.65l0.86,0.68l-0.25,0.32l-0.4-0.31c-1.04-0.82-1.49-1.1-2.12-1.44l6.61-8.41l-0.68-0.54l0.25-0.32
		l3.09,2.43l-0.25,0.32l-0.86-0.68L76.33,189.65z M77.32,177.57l-0.63-0.5l0.25-0.32l3.17,2.49l-0.25,0.32l-0.68-0.54l-0.12,3.81
		l-2.81,0.21c-0.4,0.04-0.52,0.05-0.59,0.14c-0.09,0.12-0.05,0.19,0.31,0.48l0.55,0.44l-0.25,0.32l-2.58-2.03l0.25-0.32l0.31,0.24
		c0.49,0.38,0.62,0.43,1.47,0.33l1.44-0.11L77.32,177.57z"/>
</g>
<g>
	<path class="st5" d="M251.78,417.06c0.21,1.24,0.23,1.95,0.1,2.79c-0.21,1.34-0.8,2.39-1.85,3.26c-1.51,1.23-3.3,1.69-5.44,1.36
		c-2.15-0.33-4.51-1.4-5.61-2.55c-1.01-1.06-1.4-2.39-1.18-3.84c0.33-2.18,2.18-3.69,4.16-3.39c1.14,0.17,2.22,0.88,2.92,1.93
		c0.6,0.87,0.8,1.78,0.64,2.81c-0.16,1.07-0.57,1.78-1.7,2.99c0.87,0.24,1.3,0.35,1.83,0.43c3.01,0.46,4.94-0.49,5.27-2.64
		c0.11-0.73,0.05-1.43-0.23-2.44L251.78,417.06z M244.58,420.15c0.26-1.7-1.25-3.37-3.35-3.69c-1.58-0.24-2.64,0.31-2.82,1.46
		c-0.14,0.92,0.33,1.92,1.22,2.62c0.85,0.69,1.61,1.02,3.6,1.67C244.14,421.44,244.46,420.95,244.58,420.15z"/>
</g>
<g>
	<g>
		<path class="st1" d="M236.8,420.94c3.37,7.72,3.67,12.96,1.08,17.93c-2.52,4.83-7.72,6.93-11.78,4.81
			c-3.08-1.61-4.36-5.3-2.82-8.24c1.5-2.87,4.98-4.08,7.77-2.62c1.9,0.99,2.92,2.77,2.99,5.03c0.86-0.8,1.3-1.28,1.81-2.27
			c1.9-3.64,1.56-8.8-0.94-13.76L236.8,420.94z"/>
	</g>
	<g>
		<path class="st1" d="M217.29,441.7l0.71,1.1l-0.55,0.36l-2.6-4l0.55-0.36l1.4,2.17l5.36-7.1l-8.98,1.51l1.24,1.92l-0.55,0.36
			l-3.78-5.83l0.55-0.36l0.76,1.18l13.24-1.97l3.06-4.16c0.98-1.37,1.06-1.54,0.88-1.82c-0.11-0.17-0.21-0.21-0.57-0.22
			c-0.56-0.02-1-0.28-1.32-0.78c-0.5-0.77-0.31-1.67,0.43-2.15c0.77-0.5,1.77-0.21,2.35,0.69c0.8,1.23,0.49,2.56-1.11,4.65
			L217.29,441.7z"/>
	</g>
	<g>
		<path class="st1" d="M222.19,425.3c0.84-1.88,1.43-2.47,2.41-2.45c1.22,0.03,2.04,1.26,2,3c-0.03,1.68-1.16,2.94-2.62,2.91
			c-0.68-0.01-1.22-0.24-2.36-0.97c-0.83,2.17-2.19,3.38-3.77,3.35c-1.64-0.03-2.83-1.5-2.79-3.44c0.03-1.24,0.55-2.47,1.43-3.41
			l-0.99-0.66l0.08-3.96l0.5,0.01l-0.03,1.38l2.27,1.53c0.71-0.45,1.66-0.91,2.31-1.13c0.97-0.3,1.15-0.5,1.15-1.32l0.01-0.44
			l0.52,0.01l-0.08,3.82l-0.52-0.01l0.02-0.98c0.01-0.6-0.05-0.72-0.37-0.73c-0.54-0.01-1.47,0.35-2.62,1.05L222.19,425.3z
			 M216.86,424.53c-0.51,0.53-0.8,1.13-0.82,1.71c-0.01,0.64,0.35,1.21,1.13,1.68c0.99,0.64,1.9,1,2.54,1.01
			c0.76,0.02,1.25-0.41,1.57-1.43L216.86,424.53z M224.01,426.5c0.71,0.47,0.79,0.52,1.15,0.52c0.58,0.01,1.03-0.52,1.05-1.22
			c0.02-0.82-0.57-1.29-1.61-1.31c-1.02-0.02-1.69,0.34-1.93,1.08L224.01,426.5z"/>
	</g>
</g>
<g>
	<g>
		<path class="st1" d="M241.17,412c-6.06,5.85-10.86,7.96-16.42,7.27c-5.41-0.68-9.19-4.81-8.62-9.36c0.43-3.45,3.45-5.93,6.74-5.52
			c3.21,0.4,5.56,3.24,5.17,6.37c-0.26,2.12-1.58,3.71-3.67,4.56c1.05,0.53,1.65,0.77,2.76,0.9c4.07,0.51,8.8-1.61,12.56-5.68
			L241.17,412z"/>
	</g>
	<g>
		<path class="st1" d="M228.42,405.67c3.27,1.13,4.94,2.49,5.72,4.66c0.76,2.1-0.05,4.26-1.82,4.9c-1.34,0.49-2.81-0.16-3.28-1.44
			c-0.45-1.25,0.15-2.64,1.37-3.08c0.83-0.3,1.65-0.11,2.35,0.49c0-0.48-0.03-0.75-0.18-1.18c-0.57-1.59-2.23-2.92-4.42-3.54
			L228.42,405.67z"/>
	</g>
	<g>
		<path class="st1" d="M214.91,400.96l-0.78,1.05l-0.53-0.39l2.84-3.83l0.53,0.39l-1.54,2.07l8.52,2.55l-4.55-7.89l-1.36,1.83
			l-0.53-0.39l4.14-5.58l0.53,0.39l-0.84,1.13l6.47,11.71l4.97,1.41c1.63,0.44,1.82,0.45,2.01,0.19c0.12-0.16,0.12-0.27,0.01-0.61
			c-0.17-0.54-0.08-1.04,0.27-1.51c0.54-0.73,1.46-0.87,2.17-0.34c0.73,0.54,0.82,1.58,0.17,2.45c-0.87,1.18-2.23,1.35-4.74,0.58
			L214.91,400.96z"/>
	</g>
	<g>
		<path class="st1" d="M231.98,399.83c2.06,0.13,2.82,0.48,3.14,1.4c0.4,1.15-0.47,2.35-2.12,2.92c-1.59,0.55-3.16-0.06-3.64-1.44
			c-0.22-0.64-0.2-1.23,0.08-2.55c-2.32-0.02-3.93-0.87-4.45-2.37c-0.54-1.55,0.42-3.18,2.25-3.82c1.17-0.41,2.51-0.35,3.7,0.15
			l0.28-1.16l3.74-1.31l0.17,0.47l-1.3,0.46l-0.64,2.66c0.66,0.51,1.43,1.24,1.87,1.77c0.62,0.8,0.87,0.9,1.63,0.62l0.42-0.15
			l0.17,0.49l-3.61,1.26l-0.17-0.49l0.93-0.32c0.57-0.2,0.66-0.3,0.56-0.6c-0.18-0.51-0.84-1.25-1.9-2.09L231.98,399.83z
			 M230.84,394.57c-0.68-0.29-1.34-0.36-1.88-0.17c-0.6,0.21-1.01,0.75-1.18,1.64c-0.26,1.15-0.27,2.13-0.06,2.74
			c0.25,0.72,0.82,1.03,1.89,0.97L230.84,394.57z M231.49,401.95c-0.2,0.83-0.21,0.92-0.09,1.26c0.19,0.55,0.85,0.79,1.51,0.55
			c0.78-0.27,1.01-0.99,0.67-1.97c-0.34-0.96-0.91-1.46-1.69-1.43L231.49,401.95z"/>
	</g>
</g>
<g>
	<g>
		<path class="st1" d="M251.61,422.32c8.22,1.85,12.62,4.71,15.09,9.74c2.4,4.89,1.02,10.32-3.09,12.35
			c-3.12,1.53-6.85,0.37-8.31-2.6c-1.43-2.9-0.35-6.43,2.49-7.82c1.92-0.94,3.96-0.72,5.83,0.57c-0.13-1.16-0.27-1.8-0.76-2.8
			c-1.81-3.69-6.17-6.47-11.64-7.38L251.61,422.32z"/>
	</g>
	<g>
		<path class="st1" d="M253.32,436.45c-0.86-3.35-0.63-5.5,0.75-7.34c1.34-1.79,3.59-2.3,5.09-1.17c1.14,0.86,1.41,2.44,0.6,3.53
			c-0.8,1.06-2.29,1.32-3.33,0.55c-0.7-0.53-1-1.32-0.88-2.24c-0.4,0.27-0.61,0.43-0.88,0.8c-1.01,1.35-1.22,3.47-0.53,5.64
			L253.32,436.45z"/>
	</g>
	<g>
		<path class="st1" d="M256.8,450.33l1.31,0.08l-0.04,0.65l-4.76-0.28l0.04-0.65l2.58,0.15l-2.55-8.52l-4.1,8.14l2.28,0.13
			l-0.04,0.65l-6.94-0.4l0.04-0.65l1.4,0.08l6.24-11.84l-1.55-4.93c-0.53-1.6-0.62-1.77-0.94-1.79c-0.2-0.01-0.3,0.05-0.51,0.33
			c-0.35,0.44-0.82,0.64-1.41,0.61c-0.91-0.05-1.53-0.74-1.48-1.62c0.05-0.91,0.88-1.55,1.95-1.49c1.47,0.08,2.35,1.12,3.09,3.65
			L256.8,450.33z"/>
	</g>
	<g>
		<path class="st1" d="M246.48,436.68c-1.02-1.79-1.15-2.62-0.55-3.4c0.74-0.97,2.22-0.9,3.61,0.16c1.33,1.02,1.68,2.68,0.79,3.83
			c-0.41,0.54-0.92,0.84-2.18,1.33c1.26,1.95,1.43,3.77,0.47,5.02c-1,1.3-2.88,1.39-4.43,0.21c-0.99-0.76-1.67-1.91-1.9-3.17
			l-1.12,0.4l-3.15-2.41l0.3-0.4l1.1,0.84l2.58-0.93c0.06-0.84,0.25-1.87,0.45-2.53c0.33-0.96,0.28-1.22-0.38-1.7l-0.35-0.27
			l0.32-0.41l3.04,2.33l-0.32,0.41l-0.78-0.6c-0.48-0.37-0.61-0.39-0.8-0.14c-0.33,0.43-0.59,1.39-0.71,2.73L246.48,436.68z
			 M242.71,440.52c0.13,0.73,0.43,1.31,0.89,1.67c0.51,0.39,1.18,0.43,2.02,0.09c1.1-0.42,1.93-0.94,2.32-1.45
			c0.46-0.6,0.4-1.25-0.22-2.11L242.71,440.52z M248.52,435.93c0.8-0.29,0.89-0.33,1.1-0.62c0.35-0.46,0.19-1.14-0.36-1.57
			c-0.65-0.5-1.38-0.3-2.01,0.52c-0.62,0.81-0.72,1.57-0.27,2.19L248.52,435.93z"/>
	</g>
</g>
<g>
	<path d="M217.47,449.01c-5.12-6.54-19.04-4.26-19.18-4.24l-0.16-0.93c0.6-0.1,14.62-2.4,20.08,4.59L217.47,449.01z"/>
</g>
<g>
	<path d="M211.62,453.52l-0.56-0.09c-5.91-0.95-7.95-8.75-8.04-9.08l-0.14-0.55l2.28-0.16l0.12,0.06c0.25,0.13,6.18,3.2,6.33,9.25
		L211.62,453.52z M204.1,444.67c0.54,1.67,2.48,6.64,6.52,7.7c-0.47-4.67-4.9-7.34-5.66-7.77L204.1,444.67z"/>
</g>
<g>
	<g>
		<path class="st1" d="M217.1,455.03c-1.73-1.63-1.67-4.42,0.11-6.31c1.8-1.91,4.57-2.11,6.34-0.43c1.74,1.65,1.72,4.43-0.07,6.33
			C221.66,456.55,218.9,456.73,217.1,455.03z M223.54,452.43c-0.17-0.45-0.72-1.11-1.86-2.19c-1.23-1.16-1.9-1.66-2.42-1.74
			c-0.58-0.12-1.16,0.11-1.63,0.61c-0.52,0.55-0.69,1.21-0.48,1.81c0.17,0.45,0.74,1.13,1.83,2.16c1.27,1.2,1.93,1.69,2.45,1.77
			c0.58,0.12,1.16-0.11,1.63-0.61C223.58,453.7,223.75,453.03,223.54,452.43z"/>
	</g>
</g>
<g>
	<path d="M55.39,317.4c-0.02,0-0.05,0-0.07,0c-0.33-0.04-0.57-0.34-0.53-0.67c1.16-10.12-3.21-18.44-7.84-27.24
		c-3.07-5.84-6.25-11.87-7.86-18.66c-2.77-11.63,1.1-19.37,4.83-23.81c2.24-2.68,4.9-4.72,7.49-6.11
		c-1.75-6.65-1.08-13.4,1.93-18.58c7.23-12.44,23.29-6.77,23.45-6.72c0.31,0.11,0.47,0.46,0.36,0.77c-0.11,0.31-0.45,0.48-0.77,0.36
		c-0.15-0.05-15.28-5.37-22,6.19c-2.82,4.85-3.46,11.16-1.87,17.42c2.54-1.2,4.96-1.75,6.74-1.65c4.73,0.28,6.62,3.24,7.33,4.98
		c1.2,2.94,0.72,6.57-1.15,8.62c-1.37,1.5-3.27,1.98-5.35,1.35c-2.71-0.82-5.6-4.36-7.53-9.25c-0.3-0.76-0.57-1.53-0.8-2.29
		c-2.33,1.28-4.78,3.15-6.91,5.69c-3.55,4.23-7.23,11.62-4.58,22.76c1.58,6.64,4.72,12.61,7.76,18.38
		c4.72,8.97,9.18,17.44,7.97,27.93C55.95,317.17,55.69,317.4,55.39,317.4z M52.83,241.55c0.24,0.81,0.52,1.61,0.83,2.41
		c1.77,4.48,4.42,7.83,6.76,8.54c2.07,0.63,3.38-0.21,4.11-1.01c1.57-1.72,1.95-4.81,0.92-7.35c-0.6-1.48-2.22-3.99-6.29-4.23
		C57.67,239.81,55.37,240.33,52.83,241.55z"/>
</g>
<g>
	<path d="M298.34,424.62c-0.12,0-0.24-0.04-0.35-0.11c-0.13-0.09-3.2-2.33-2.72-7.72c0.48-5.38,4.53-12.47,9.22-20.67
		c3.23-5.65,6.57-11.5,9.04-17.34c3.18-7.52,1.82-12.81,0.12-15.93c-2.39-4.39-6.39-6.5-9.09-6.97c-2.21-0.38-4.58,0.97-6.2,3.54
		c-2.18,3.45-2.88,9.04,0.47,13.77c1.56,2.21,1.99,4.29,1.26,6.2c-1.7,4.4-9.01,6.07-9.32,6.14l-0.55,0.12l-0.16-0.54
		c0-0.01-0.42-1.37-1.57-1.8c-0.87-0.33-1.97-0.07-3.28,0.75c-3.96,2.48,0.36,11.32,0.4,11.41c0.15,0.3,0.03,0.66-0.27,0.81
		c-0.3,0.15-0.66,0.03-0.81-0.27c-0.2-0.4-4.84-9.91,0.04-12.96c1.65-1.03,3.12-1.32,4.36-0.85c1.15,0.44,1.78,1.42,2.07,2.04
		c1.62-0.44,6.74-2.08,7.97-5.28c0.58-1.5,0.2-3.2-1.11-5.06c-3.67-5.18-2.9-11.32-0.51-15.11c1.89-2.99,4.73-4.56,7.43-4.08
		c2.97,0.52,7.35,2.82,9.95,7.58c1.82,3.35,3.29,9.02-0.07,16.98c-2.5,5.91-5.86,11.79-9.11,17.47c-4.43,7.75-8.61,15.07-9.07,20.19
		c-0.42,4.66,2.11,6.55,2.22,6.63c0.27,0.19,0.33,0.57,0.14,0.84C298.72,424.53,298.53,424.62,298.34,424.62z"/>
</g>
<g>
	<path d="M278.67,287.04c-3.06,0-7.49-0.61-11.64-3.42c-5.24-3.55-8.58-9.66-9.95-18.15c-2.21-13.75,4.21-22.94,10.4-31.81
		c5.4-7.73,10.49-15.03,9.79-24.93c-0.91-12.7-14.07-22.68-26.61-25.97c-3.23-0.85-6.22-1.18-8.8-1.05
		c0.77,1.05,1.47,2.23,2.07,3.55c2.56,5.61,0.62,8.09-0.76,9.07c-2.65,1.87-7.33,1.22-10.01-1.39c-2.28-2.21-2.45-5.21-0.46-8.21
		c1.37-2.07,3.71-3.41,6.75-3.97c-1.39-1.37-3-2.37-4.82-2.98c-7.18-2.4-15.37,1.96-15.45,2l-0.57-1.06
		c0.35-0.19,8.72-4.65,16.4-2.08c2.29,0.77,4.26,2.08,5.92,3.92c2.88-0.28,6.29,0.06,10.04,1.04c12.95,3.4,26.56,13.78,27.51,27.05
		c0.73,10.33-4.48,17.79-10,25.7c-6.06,8.68-12.33,17.66-10.2,30.93c1.31,8.15,4.48,13.99,9.44,17.35
		c6.73,4.57,14.49,2.9,14.57,2.89l0.26,1.18C282.4,286.72,280.9,287.04,278.67,287.04z M240.45,181.84
		c-3.09,0.42-5.45,1.62-6.73,3.55c-1.66,2.51-1.56,4.89,0.29,6.68c2.22,2.16,6.34,2.77,8.48,1.27c1.86-1.31,1.99-4.01,0.36-7.58
		C242.16,184.26,241.36,182.96,240.45,181.84z"/>
</g>
<g>
	<path class="st6" d="M124.08,191.88c-1.03,2.22-2.35,3.53-4.41,4.37c-4.19,1.7-8.83-0.27-10.53-4.46
		c-1.73-4.26,0.29-9.08,4.48-10.79c3.85-1.56,7.99-0.06,9.41,3.44c1.15,2.84-0.03,5.97-2.65,7.04c-1.09,0.44-1.83,0.37-2.64-0.33
		c-0.36,1.2-0.82,1.74-1.79,2.13c-1.61,0.65-3.08-0.05-3.8-1.84c-0.94-2.32,0.1-5.42,2.1-6.24c0.84-0.34,1.39-0.27,2.26,0.33
		l-0.17-0.91l3.24-1.32l1.23,6.24c0,0.05,0.01,0.09,0.03,0.14c0.03,0.09,0.12,0.12,0.21,0.09c0.28-0.11,0.71-0.79,0.95-1.54
		c0.37-1.18,0.35-2.27-0.09-3.37c-1.14-2.82-4.72-4.1-7.86-2.82c-3.61,1.47-5.2,5.58-3.83,9.25c1.37,3.65,5.45,5.35,8.96,3.92
		c1.33-0.54,2.28-1.35,3.14-2.63L124.08,191.88z M115.1,187.59c0.12,1.4,0.47,3.01,0.88,4.02c0.17,0.41,0.36,0.53,0.62,0.42
		c0.86-0.35,0.92-2.98,0.12-4.96c-0.44-1.08-0.84-1.51-1.29-1.33C115.09,185.89,115,186.35,115.1,187.59z"/>
</g>
<g>
	<path class="st6" d="M120.35,195.91c-4.75,3.73-9,4.76-12.08,1.66c-3.14-3.15-2.51-8.19,1.19-12.77l0.81,1.11
		c-1.25,2.84-0.49,5.68,1.65,7.83c2.19,2.2,4.54,2.65,7.83,1.57L120.35,195.91z"/>
</g>
</svg>
