<?xml version="1.0" encoding="utf-8"?>
<!-- Generator: Adobe Illustrator 24.3.0, SVG Export Plug-In . SVG Version: 6.00 Build 0)  -->
<svg version="1.1" id="Layer_1" xmlns="http://www.w3.org/2000/svg" xmlns:xlink="http://www.w3.org/1999/xlink" x="0px" y="0px"
	 viewBox="0 0 24 24" style="enable-background:new 0 0 24 24;" xml:space="preserve">
<style type="text/css">
	.st0{fill:none;stroke:#000000;stroke-width:0.7001;stroke-miterlimit:10;}
	.st1{fill:none;stroke:#000000;stroke-width:0.8274;stroke-miterlimit:10;}
</style>
<path d="M17.9,6.87c-0.26,0-0.52-0.11-0.71-0.29c-0.09-0.1-0.16-0.21-0.21-0.33C16.92,6.13,16.9,6,16.9,5.87
	c0-0.26,0.11-0.52,0.29-0.71c0.38-0.37,1.05-0.37,1.42,0c0.18,0.19,0.29,0.45,0.29,0.71c0,0.13-0.03,0.26-0.08,0.38
	s-0.12,0.23-0.21,0.33C18.42,6.76,18.16,6.87,17.9,6.87z"/>
<path class="st0" d="M16.84,21.68H7.16c-2.53,0-4.58-2.05-4.58-4.58V7.41c0-2.53,2.05-4.58,4.58-4.58h9.68
	c2.53,0,4.58,2.05,4.58,4.58v9.68C21.43,19.63,19.37,21.68,16.84,21.68z"/>
<circle class="st1" cx="12" cy="12.26" r="4.05"/>
</svg>
