<?xml version="1.0" encoding="utf-8"?>
<!-- Generator: Adobe Illustrator 24.3.0, SVG Export Plug-In . SVG Version: 6.00 Build 0)  -->
<svg version="1.1" id="Layer_1" xmlns="http://www.w3.org/2000/svg" xmlns:xlink="http://www.w3.org/1999/xlink" x="0px" y="0px"
	 viewBox="0 0 20 20" style="enable-background:new 0 0 20 20;" xml:space="preserve">
<style type="text/css">
	.st0{fill-rule:evenodd;clip-rule:evenodd;}
</style>
<desc>Created with Sketch.</desc>
<g id="Page-1">
	<g id="Dribbble-Light-Preview" transform="translate(-180.000000, -7479.000000)">
		<g id="icons" transform="translate(56.000000, 160.000000)">
			<path id="linkedin-_x5B__x23_161_x5D_" class="st0" d="M151,7346h-4v-7c0-1.92-0.85-2.99-2.37-2.99c-1.65,0-2.63,1.12-2.63,2.99
				v7h-4v-13h4v1.46c0,0,1.26-2.2,4.08-2.2c2.83,0,4.92,1.73,4.92,5.3V7346L151,7346z M133.44,7330.92c-1.35,0-2.44-1.1-2.44-2.46
				c0-1.36,1.09-2.46,2.44-2.46c1.35,0,2.44,1.1,2.44,2.46C135.88,7329.82,134.79,7330.92,133.44,7330.92L133.44,7330.92z M131,7346
				h5v-13h-5V7346z"/>
		</g>
	</g>
</g>
</svg>
