<?xml version="1.0" encoding="utf-8"?>
<!-- Generator: Adobe Illustrator 24.3.0, SVG Export Plug-In . SVG Version: 6.00 Build 0)  -->
<svg version="1.1" id="Layer_1" xmlns="http://www.w3.org/2000/svg" xmlns:xlink="http://www.w3.org/1999/xlink" x="0px" y="0px"
	 viewBox="0 0 24 24" style="enable-background:new 0 0 24 24;" xml:space="preserve">
<g>
	<path d="M20,22.4h-0.2c-3.1-0.3-6.1-1.4-8.9-3.2c-2.5-1.5-4.6-3.7-6.2-6.2C3.1,10.5,2,7.5,1.6,4.2C1.5,3.5,1.7,2.9,2.2,2.4
		c0.4-0.5,1-0.8,1.7-0.9l3.2,0c1.3,0,2.4,0.9,2.5,2.2c0.1,0.9,0.4,1.8,0.7,2.7c0.4,0.8,0.1,1.9-0.5,2.6l-1,1c1.3,2.2,3.1,4,5.3,5.3
		l1-1c0.8-0.7,1.8-0.9,2.7-0.5c0.9,0.3,1.7,0.6,2.7,0.7c1.2,0.1,2.2,1.2,2.2,2.5v3C22.5,21.3,21.4,22.4,20,22.4z M3.9,2.5
		c-0.4,0-0.7,0.2-1,0.5c-0.2,0.3-0.4,0.7-0.3,1c0.4,3.2,1.4,6,3,8.5c1.5,2.4,3.5,4.4,5.8,5.8c2.6,1.7,5.5,2.7,8.4,3l0.2,0
		c0.8,0,1.5-0.7,1.5-1.5v-3c0-0.8-0.5-1.4-1.2-1.5c-1.1-0.1-2-0.4-2.9-0.7c-0.5-0.2-1.1-0.1-1.6,0.3l-1.3,1.3
		c-0.2,0.2-0.4,0.2-0.6,0.1c-2.6-1.5-4.7-3.6-6.2-6.2C7.6,9.9,7.6,9.7,7.7,9.5L9,8.2c0.4-0.4,0.5-1.1,0.3-1.5C9,5.7,8.7,4.8,8.6,3.8
		C8.5,3,7.9,2.5,7.1,2.5H3.9z M19,9.4c-0.2,0-0.5-0.2-0.5-0.4c-0.3-1.7-1.7-3.1-3.5-3.5c-0.3-0.1-0.4-0.3-0.4-0.6
		c0.1-0.3,0.3-0.4,0.6-0.4c2.2,0.4,4,2.2,4.3,4.3C19.5,9.1,19.4,9.4,19,9.4C19.1,9.4,19,9.4,19,9.4z M23,9.4c-0.3,0-0.5-0.2-0.5-0.5
		C22.1,5.1,19,2,15,1.5c-0.3,0-0.5-0.3-0.4-0.6s0.3-0.5,0.6-0.4c4.4,0.5,7.9,4,8.3,8.3C23.5,9.1,23.3,9.4,23,9.4
		C23,9.4,23,9.4,23,9.4z"/>
</g>
</svg>
